<?xml version="1.0" encoding="utf-8"?>
<svg id="master-artboard" viewBox="0 0 1400 980" version="1.1" xmlns="http://www.w3.org/2000/svg" x="0px" y="0px" style="enable-background:new 0 0 336 235.2;" width="1400px" height="980px"><rect id="ee-background" x="0" y="0" width="1400" height="980" style="fill: white; fill-opacity: 0; pointer-events: none;"/><defs><style id="ee-google-fonts">@import url(https://fonts.googleapis.com/css?family=Audiowide:400);</style></defs>

<g transform="matrix(4.198465824127197, 0, 0, 4.198465824127197, -5, -4)">
		<path d="M 0 0 H 336 V 235.199997 H 0 V 0 Z" class="st0" style="fill: rgb(56, 52, 75);"/>
	</g>
<path class="st1" d="M72.2,234.6h192.3c30.6-26.7,50-66,50-109.7c0-52.8-28.2-99-70.4-124.6H92.6C50.4,25.9,22.2,72.1,22.2,124.9&#10;&#9;&#9;C22.2,168.7,41.6,207.9,72.2,234.6z" style="fill: rgb(66, 62, 89);" transform="matrix(4.198465824127197, 0, 0, 4.198465824127197, -5, -4)"/>
<path d="M 278.399994 124.599998 A 110 110 0 0 1 168.399994 234.599998 A 110 110 0 0 1 58.399994 124.599998 A 110 110 0 0 1 168.399994 14.599998 A 110 110 0 0 1 278.399994 124.599998 Z" class="st2" style="fill: rgb(74, 69, 99);" transform="matrix(4.198465824127197, 0, 0, 4.198465824127197, -5, -4)"/>
<path class="st3" d="M91,122.8C91,122.9,91,122.9,91,122.8c0,42.8,34.6,77.4,77.4,77.4s77.4-34.6,77.4-77.4c0,0,0,0,0-0.1H91z" style="fill: rgb(250, 116, 52);" transform="matrix(4.198465824127197, 0, 0, 4.198465824127197, -5, -4)"/>
<path class="st4" d="M98.9,157.1c12.6,25.6,39,43.2,69.4,43.2s56.8-17.6,69.4-43.2H98.9z" style="fill: rgb(252, 171, 15);" transform="matrix(4.198465824127197, 0, 0, 4.198465824127197, -5, -4)"/>
<path class="st3" d="M118,181.6c13.5,11.6,31.1,18.7,50.4,18.7c19.2,0,36.8-7,50.4-18.7H118z" style="fill: rgb(250, 116, 52);" transform="matrix(4.198465824127197, 0, 0, 4.198465824127197, -5, -4)"/>
<path class="st5" d="M236.9,123.5h-3c0-36.1-29.4-65.5-65.5-65.5c-36.1,0-65.5,29.4-65.5,65.5h-3c0-37.8,30.7-68.5,68.5-68.5&#10;&#9;&#9;C206.1,55,236.9,85.7,236.9,123.5z" style="fill: rgb(248, 233, 211);" transform="matrix(4.198465824127197, 0, 0, 4.198465824127197, -5, -4)"/>
<path class="st5" d="M168.4,211.7c-48.7,0-88.2-39.6-88.2-88.2c0-48.7,39.6-88.2,88.2-88.2c48.7,0,88.2,39.6,88.2,88.2&#10;&#9;&#9;C256.6,172.2,217,211.7,168.4,211.7z M168.4,38.3c-47,0-85.2,38.2-85.2,85.2c0,47,38.2,85.2,85.2,85.2c47,0,85.2-38.2,85.2-85.2&#10;&#9;&#9;C253.6,76.5,215.4,38.3,168.4,38.3z" style="fill: rgb(248, 233, 211); opacity: 0.3;" transform="matrix(4.198465824127197, 0, 0, 4.198465824127197, -5, -4)"/>
<path class="st5" d="M265.2,121.6c-0.6,0-1-0.4-1-1c0-14.8-3.7-29.4-10.7-42.2c-2.8-5.2-6.2-10.2-10.1-14.8&#10;&#9;&#9;c-0.4-0.4-0.3-1.1,0.1-1.4c0.4-0.4,1.1-0.3,1.4,0.1c3.9,4.7,7.4,9.8,10.3,15.1c7.2,13.2,10.9,28.1,10.9,43.2&#10;&#9;&#9;C266.2,121.2,265.8,121.6,265.2,121.6z" style="fill: rgb(248, 233, 211);" transform="matrix(4.198465824127197, 0, 0, 4.198465824127197, -5, -4)"/>
<path class="st5" d="M169.7,222.1c-13.7,0-26.9-2.7-39.3-8c-17.8-7.6-33-20.1-43.9-36.2c-11.3-16.7-17.3-36.2-17.3-56.4&#10;&#9;&#9;c0-0.6,0.4-1,1-1c0.6,0,1,0.4,1,1c0,19.8,5.9,39,17,55.3c10.7,15.8,25.6,28,43.1,35.4c12.2,5.2,25.2,7.8,38.6,7.8&#10;&#9;&#9;c14.1,0,27.7-2.9,40.4-8.6c0.5-0.2,1.1,0,1.3,0.5c0.2,0.5,0,1.1-0.5,1.3C198,219.1,184.1,222.1,169.7,222.1z" style="fill: rgb(248, 233, 211);" transform="matrix(4.198465824127197, 0, 0, 4.198465824127197, -5, -4)"/>
<path class="st7" d="M168.4,15c0,0-3.5,0-6.7,6.6c-3.2,6.6-8.8,29.1-10.8,37.1c-2,8-6.4,14.3-16.5,18.1s-12.6,9.4-12.6,11.6h46.6" style="fill: rgb(255, 216, 186);" transform="matrix(4.198465824127197, 0, 0, 4.198465824127197, -5, -4)"/>
<path class="st7" d="M168.4,15c0,0,3.5,0,6.7,6.6c3.2,6.6,8.8,29.1,10.8,37.1c2,8,6.4,14.3,16.5,18.1c10.2,3.8,12.6,9.4,12.6,11.6&#10;&#9;&#9;h-46.6" style="fill: rgb(255, 216, 186);" transform="matrix(4.198465824127197, 0, 0, 4.198465824127197, -5, -4)"/>
<path d="M 161.800003 31.9 L 159.199997 39.099998 L 161.800003 38.099998 L 168.399994 38.099998 L 168.399994 31.9" class="st8" style="fill: rgb(154, 84, 72);" transform="matrix(4.198465824127197, 0, 0, 4.198465824127197, -5, -4)"/>
<path d="M 174.899994 31.9 L 177.600006 39.099998 L 174.899994 38.099998 L 168.399994 38.099998 L 168.399994 31.9" class="st8" style="fill: rgb(154, 84, 72);" transform="matrix(4.198465824127197, 0, 0, 4.198465824127197, -5, -4)"/>
<path d="M 121.800003 88.300003 H 215 V 93.900003 H 121.800003 V 88.300003 Z" class="st9" style="fill: rgb(248, 122, 50);" transform="matrix(4.198465824127197, 0, 0, 4.198465824127197, -5, -4)"/>
<path d="M 159.199997 43.900002 H 177.599997 V 101.900002 H 159.199997 V 43.900002 Z" class="st5" style="fill: rgb(248, 233, 211);" transform="matrix(4.198465824127197, 0, 0, 4.198465824127197, -5, -4)"/>
<path d="M 159.199997 101.800003 H 177.599997 V 106.400003 H 159.199997 V 101.800003 Z" class="st9" style="fill: rgb(248, 122, 50);" transform="matrix(4.198465824127197, 0, 0, 4.198465824127197, -5, -4)"/>
<path d="M 137.800003 79.900002 H 138.900003 V 88.600001 H 137.800003 V 79.900002 Z" class="st9" style="fill: rgb(248, 122, 50);" transform="matrix(4.198465824127197, 0, 0, 4.198465824127197, -5, -4)"/>
<path d="M 141.800003 79.900002 H 142.900003 V 88.600001 H 141.800003 V 79.900002 Z" class="st9" style="fill: rgb(248, 122, 50);" transform="matrix(4.198465824127197, 0, 0, 4.198465824127197, -5, -4)"/>
<path d="M 145.800003 77 H 146.900003 V 88.5 H 145.800003 V 77 Z" class="st9" style="fill: rgb(248, 122, 50);" transform="matrix(4.198465824127197, 0, 0, 4.198465824127197, -5, -4)"/>
<path d="M 149.800003 72.800003 H 150.900003 V 88.500003 H 149.800003 V 72.800003 Z" class="st9" style="fill: rgb(248, 122, 50);" transform="matrix(4.198465824127197, 0, 0, 4.198465824127197, -5, -4)"/>
<path d="M 197.300003 79.900002 H 198.400003 V 88.600001 H 197.300003 V 79.900002 Z" class="st9" style="fill: rgb(248, 122, 50);" transform="matrix(4.198465824127197, 0, 0, 4.198465824127197, -5, -4)"/>
<path d="M 193.300003 79.900002 H 194.400003 V 88.600001 H 193.300003 V 79.900002 Z" class="st9" style="fill: rgb(248, 122, 50);" transform="matrix(4.198465824127197, 0, 0, 4.198465824127197, -5, -4)"/>
<path d="M 189.300003 77 H 190.400003 V 88.5 H 189.300003 V 77 Z" class="st9" style="fill: rgb(248, 122, 50);" transform="matrix(4.198465824127197, 0, 0, 4.198465824127197, -5, -4)"/>
<path d="M 185.300003 72.800003 H 186.400003 V 88.500003 H 185.300003 V 72.800003 Z" class="st9" style="fill: rgb(248, 122, 50);" transform="matrix(4.198465824127197, 0, 0, 4.198465824127197, -5, -4)"/>
<g transform="matrix(4.198465824127197, 0, 0, 4.198465824127197, -5, -4)">
		<path class="st10" d="M306.9,51.6c-2.1-4.3-5.6-7.7-9.9-9.8c-3,0.8-5.9,2.1-8.5,3.9c-1.6,1.1-3.4,2.4-4.8,3.7&#10;&#9;&#9;&#9;c-1.6,1.6-2.9,2.9-4.8,4.2c-1.9,1.3-4,2.9-6.1,4c-1.6,0.5-3.4,1.1-5,1.3c-0.2,0-0.4,0.1-0.5,0.1c-0.1,0.6-0.1,1.2-0.1,1.9&#10;&#9;&#9;&#9;c0,1.1,0.1,2.3,0.3,3.3c2.3-0.7,4.9-1.7,7.6-3.3C282.3,56.8,295.5,53.7,306.9,51.6z M291.6,45.9c3.6-1.4,7-1,7.8,0.9&#10;&#9;&#9;&#9;c0.7,1.9-1.5,4.5-5.1,5.9c-3.6,1.4-7,1-7.8-0.9C285.8,49.9,288.1,47.3,291.6,45.9z" style="fill: rgb(250, 139, 79);"/>
	</g><path class="st10" d="M289.5,39.8c-0.5,0-1-0.1-1.4-0.1c-0.8,0-1.6,0-2.4,0.1c0.8-0.1,1.6-0.1,2.4-0.1&#10;&#9;&#9;&#9;C288.6,39.8,289.1,39.8,289.5,39.8z" style="fill: rgb(250, 139, 79);" transform="matrix(4.198465824127197, 0, 0, 4.198465824127197, -5, -4)"/><path class="st10" d="M282.7,40.5c-4.9,1.3-9.2,4.4-12,8.6c1.9-0.9,3.7-2.2,5.3-3.4C278.3,44.1,280.5,42.3,282.7,40.5z" style="fill: rgb(250, 139, 79);" transform="matrix(4.198465824127197, 0, 0, 4.198465824127197, -5, -4)"/><path class="st10" d="M308.5,65.4c0.3-1.5,0.5-3,0.5-4.6c0-0.9-0.1-1.7-0.2-2.6c-13.6,1.1-22.2,6.9-35.6,12.4&#10;&#9;&#9;&#9;c-1.1,0.4-2.1,0.8-3,1.1c1.3,2.2,3,4.1,5,5.6c3.4-0.4,7.1-1.1,10.9-2.2C300.8,70.9,299.1,65.9,308.5,65.4z M281.7,71.8&#10;&#9;&#9;&#9;c-0.7-1.9,1.5-4.5,5.1-5.9c3.6-1.4,7-1,7.8,0.9c0.7,1.9-1.5,4.5-5.1,5.9C285.9,74.1,282.4,73.7,281.7,71.8z" style="fill: rgb(250, 139, 79);" transform="matrix(4.198465824127197, 0, 0, 4.198465824127197, -5, -4)"/><path class="st11" d="M308.5,65.4c-9.4,0.5-7.7,5.5-22.5,9.7c-3.8,1.1-7.5,1.8-10.9,2.2c3.6,2.8,8,4.5,12.9,4.5&#10;&#9;&#9;&#9;C298.1,81.9,306.4,74.8,308.5,65.4z" style="fill: rgb(227, 126, 72);" transform="matrix(4.198465824127197, 0, 0, 4.198465824127197, -5, -4)"/><path class="st11" d="M308.9,58.2c-0.3-2.4-1-4.6-2-6.7c-11.4,2.1-24.6,5.3-31.9,9.4c-2.7,1.5-5.3,2.6-7.6,3.3&#10;&#9;&#9;&#9;c0.4,2.7,1.4,5.3,2.8,7.6c1-0.3,2-0.7,3-1.1C286.6,65.2,295.3,59.4,308.9,58.2z" style="fill: rgb(227, 126, 72);" transform="matrix(4.198465824127197, 0, 0, 4.198465824127197, -5, -4)"/><path class="st12" d="M294.6,66.8c-0.7-1.9-4.2-2.3-7.8-0.9c-3.6,1.4-5.8,4-5.1,5.9c0.7,1.9,4.2,2.3,7.8,0.9&#10;&#9;&#9;&#9;C293,71.3,295.3,68.7,294.6,66.8z" style="fill: rgb(199, 110, 63);" transform="matrix(4.198465824127197, 0, 0, 4.198465824127197, -5, -4)"/><path class="st11" d="M294.3,52.7c3.6-1.4,5.8-4,5.1-5.9c-0.7-1.9-4.2-2.3-7.8-0.9c-3.6,1.4-5.8,4-5.1,5.9&#10;&#9;&#9;&#9;C287.2,53.7,290.7,54.1,294.3,52.7z" style="fill: rgb(227, 126, 72);" transform="matrix(4.198465824127197, 0, 0, 4.198465824127197, -5, -4)"/><path class="st13" d="M282.8,40.4c0,0-0.1,0.1-0.1,0.1c1-0.3,2-0.5,3-0.6C284.7,40,283.8,40.2,282.8,40.4z" style="fill: rgb(235, 213, 105);" transform="matrix(4.198465824127197, 0, 0, 4.198465824127197, -5, -4)"/><path class="st11" d="M272.8,57.6c2.1-1.1,4.2-2.7,6.1-4c1.9-1.3,3.2-2.7,4.8-4.2c1.3-1.3,3.2-2.7,4.8-3.7&#10;&#9;&#9;&#9;c2.6-1.8,5.5-3.1,8.5-3.9c-2.3-1.1-4.8-1.8-7.5-1.9c-0.5,0-0.9,0-1.4,0c-0.8,0-1.6,0-2.4,0.1c-1,0.1-2,0.3-3,0.6&#10;&#9;&#9;&#9;c-2.2,1.9-4.4,3.6-6.7,5.2c-1.6,1.2-3.4,2.5-5.3,3.4c-1.9,2.9-3.2,6.3-3.5,9.9c0.2,0,0.4,0,0.5-0.1&#10;&#9;&#9;&#9;C269.4,58.6,271.2,58.1,272.8,57.6z" style="fill: rgb(227, 126, 72);" transform="matrix(4.198465824127197, 0, 0, 4.198465824127197, -5, -4)"/>
<path d="M 297.399988 56.5 A 13.1 13.1 0 0 1 284.299988 69.6 A 13.1 13.1 0 0 1 271.199987 56.5 A 13.1 13.1 0 0 1 284.299988 43.4 A 13.1 13.1 0 0 1 297.399988 56.5 Z" class="st15" style="fill: rgb(255, 255, 255); opacity: 0.1;" transform="matrix(4.198465824127197, 0, 0, 4.198465824127197, -5, -4)"/>
<path d="M294.8,43.3c3.9,3.2,6.4,7.9,6.4,13.2c0,9.5-7.9,17.2-17.7,17.2c-5.5,0-10.3-2.4-13.6-6.2c2.7,7.3,9.9,12.5,18.3,12.5&#10;&#9;&#9;c10.7,0,19.5-8.5,19.5-18.9C307.6,52.9,302.3,45.9,294.8,43.3z" transform="matrix(4.198465824127197, 0, 0, 4.198465824127197, -5, -4)" style="opacity: 0.08;"/>
<g transform="matrix(4.198465824127197, 0, 0, 4.198465824127197, -5, -4)">
		<path d="M 83.000002 45.099998 A 28.6 28.799999 0 0 1 54.400002 73.899998 A 28.6 28.799999 0 0 1 25.800001 45.099998 A 28.6 28.799999 0 0 1 54.400002 16.299999 A 28.6 28.799999 0 0 1 83.000002 45.099998 Z" class="st17" style="fill: rgb(255, 230, 115);"/>
	</g>
<g transform="matrix(4.198465824127197, 0, 0, 4.198465824127197, -5, -4)">
		<path class="st13" d="M36.6,22.5c-2.4,1.9-4.5,4.3-6.2,6.9c6.1,0.1,13.6,0.9,21.7,3.2c19.4,5.6,14.3,12.3,31.1,11.2&#10;&#9;&#9;&#9;c-0.3-7.2-3.2-13.7-7.8-18.6C62.9,23.8,48.5,22.5,36.6,22.5z" style="fill: rgb(235, 213, 105);"/>
	</g>
<g transform="matrix(4.198465824127197, 0, 0, 4.198465824127197, -5, -4)">
		<path class="st13" d="M27.5,35c-1.1,2.9-1.7,6-1.8,9.3c3.9,0.7,8.4,2,13.5,4.9c9,5,25.6,8.8,39.4,11.3c1.6-2.4,2.8-5.1,3.6-8&#10;&#9;&#9;&#9;c-18-0.5-28.3-7.8-45-14.6C33.6,36.4,30.4,35.5,27.5,35z" style="fill: rgb(235, 213, 105);"/>
	</g>
<g transform="matrix(4.198465824127197, 0, 0, 4.198465824127197, -5, -4)">
		<path d="M 58.8 39.400002 A 4.3 8 0 0 1 54.5 47.400002 A 4.3 8 0 0 1 50.2 39.400002 A 4.3 8 0 0 1 54.5 31.400002 A 4.3 8 0 0 1 58.8 39.400002 Z" transform="matrix(0.3641 -0.9313 0.9313 0.3641 -2.0579 75.8129)" class="st18" style="fill: rgb(207, 186, 92);"/>
	</g>
<g transform="matrix(4.198465824127197, 0, 0, 4.198465824127197, -5, -4)">
		<path class="st13" d="M58.5,66.6c4.1,1.6,8.2,1.1,9-1c0.9-2.2-1.8-5.3-5.9-6.9c-4.1-1.6-8.2-1.1-9,1C51.8,61.9,54.4,65,58.5,66.6z&#10;&#9;&#9;&#9;" style="fill: rgb(235, 213, 105);"/>
	</g>
<g transform="matrix(4.198465824127197, 0, 0, 4.198465824127197, -5, -4)">
		<path class="st13" d="M49.3,62.6c-1.8-1.8-3.4-3.4-5.5-4.9c-2.2-1.5-4.6-3.4-7.1-4.6c-1.8-0.6-4-1.2-5.9-1.5&#10;&#9;&#9;&#9;c-1.5-0.3-2.9-0.3-4.4-0.1c0.9,3.8,2.5,7.4,4.8,10.5c3.3,0.7,6.4,3.1,9.1,5c2.7,1.8,5.4,3.9,8,6.1c2,0.4,4,0.7,6.1,0.7&#10;&#9;&#9;&#9;c3.9,0,7.5-0.8,10.9-2.1c-3.7-0.9-7.3-2.4-10.5-4.6C53,65.6,50.9,64.1,49.3,62.6z" style="fill: rgb(235, 213, 105);"/>
	</g>
<path class="st15" d="M67.2,39.1c0,9.9-8,17.9-17.9,17.9c-9.9,0-17.9-8-17.9-17.9c0-9.9,8-17.9,17.9-17.9&#10;&#9;&#9;C59.1,21.2,67.2,29.2,67.2,39.1z" style="fill: rgb(255, 255, 255); opacity: 0.2;" transform="matrix(4.198465824127197, 0, 0, 4.198465824127197, -5, -4)"/>
<path d="M63.6,21c5.3,4.3,8.7,10.8,8.7,18.1c0,13-10.8,23.6-24.2,23.6c-7.5,0-14.1-3.3-18.6-8.5c3.7,9.9,13.5,17,25,17&#10;&#9;&#9;c14.7,0,26.6-11.6,26.6-25.9C81.1,34.2,73.8,24.6,63.6,21z" transform="matrix(4.198465824127197, 0, 0, 4.198465824127197, -5, -4)" style="opacity: 0.03;"/>
<g transform="matrix(4.198465824127197, 0, 0, 4.198465824127197, -5, -4)">
		<path d="M 237.700003 53.200001 A 14.9 14.9 0 0 1 222.800003 68.1 A 14.9 14.9 0 0 1 207.900003 53.200001 A 14.9 14.9 0 0 1 222.800003 38.300001 A 14.9 14.9 0 0 1 237.700003 53.200001 Z" class="st17" style="fill: rgb(255, 230, 115);"/>
	</g>
<path d="M 232.099997 47.5 A 1.9 1.9 0 0 1 230.199997 49.4 A 1.9 1.9 0 0 1 228.299997 47.5 A 1.9 1.9 0 0 1 230.199997 45.6 A 1.9 1.9 0 0 1 232.099997 47.5 Z" class="st13" style="fill: rgb(235, 213, 105);" transform="matrix(4.198465824127197, 0, 0, 4.198465824127197, -5, -4)"/>
<path d="M 217.500003 45 A 1.2 1.2 0 0 1 216.300003 46.2 A 1.2 1.2 0 0 1 215.100003 45 A 1.2 1.2 0 0 1 216.300003 43.8 A 1.2 1.2 0 0 1 217.500003 45 Z" class="st13" style="fill: rgb(235, 213, 105);" transform="matrix(4.198465824127197, 0, 0, 4.198465824127197, -5, -4)"/>
<path d="M 223.599994 63.200001 A 1.2 1.2 0 0 1 222.399994 64.400001 A 1.2 1.2 0 0 1 221.199994 63.200001 A 1.2 1.2 0 0 1 222.399994 62.000001 A 1.2 1.2 0 0 1 223.599994 63.200001 Z" class="st18" style="fill: rgb(207, 186, 92);" transform="matrix(4.198465824127197, 0, 0, 4.198465824127197, -5, -4)"/>
<path d="M 217.500003 60.900002 A 1.2 1.2 0 0 1 216.300003 62.100002 A 1.2 1.2 0 0 1 215.100003 60.900002 A 1.2 1.2 0 0 1 216.300003 59.700001 A 1.2 1.2 0 0 1 217.500003 60.900002 Z" class="st13" style="fill: rgb(235, 213, 105);" transform="matrix(4.198465824127197, 0, 0, 4.198465824127197, -5, -4)"/>
<path d="M 222.399997 55.400002 A 1.2 1.2 0 0 1 221.199997 56.600002 A 1.2 1.2 0 0 1 219.999997 55.400002 A 1.2 1.2 0 0 1 221.199997 54.200001 A 1.2 1.2 0 0 1 222.399997 55.400002 Z" class="st13" style="fill: rgb(235, 213, 105);" transform="matrix(4.198465824127197, 0, 0, 4.198465824127197, -5, -4)"/>
<path d="M 226.599994 42 A 1.2 1.2 0 0 1 225.399994 43.2 A 1.2 1.2 0 0 1 224.199994 42 A 1.2 1.2 0 0 1 225.399994 40.8 A 1.2 1.2 0 0 1 226.599994 42 Z" class="st18" style="fill: rgb(207, 186, 92);" transform="matrix(4.198465824127197, 0, 0, 4.198465824127197, -5, -4)"/>
<path d="M 229.399997 53.099998 A 1.2 1.2 0 0 1 228.199997 54.299999 A 1.2 1.2 0 0 1 226.999997 53.099998 A 1.2 1.2 0 0 1 228.199997 51.899998 A 1.2 1.2 0 0 1 229.399997 53.099998 Z" class="st18" style="fill: rgb(207, 186, 92);" transform="matrix(4.198465824127197, 0, 0, 4.198465824127197, -5, -4)"/>
<path d="M 225.299994 50.799999 A 1.4 1.4 0 0 1 223.899994 52.199999 A 1.4 1.4 0 0 1 222.499994 50.799999 A 1.4 1.4 0 0 1 223.899994 49.399999 A 1.4 1.4 0 0 1 225.299994 50.799999 Z" class="st13" style="fill: rgb(235, 213, 105);" transform="matrix(4.198465824127197, 0, 0, 4.198465824127197, -5, -4)"/>
<path d="M 232.9 57.299999 A 1.4 1.4 0 0 1 231.5 58.699999 A 1.4 1.4 0 0 1 230.1 57.299999 A 1.4 1.4 0 0 1 231.5 55.899999 A 1.4 1.4 0 0 1 232.9 57.299999 Z" class="st13" style="fill: rgb(235, 213, 105);" transform="matrix(4.198465824127197, 0, 0, 4.198465824127197, -5, -4)"/>
<path d="M 214.300006 53.099998 A 1.2 1.2 0 0 1 213.100006 54.299999 A 1.2 1.2 0 0 1 211.900006 53.099998 A 1.2 1.2 0 0 1 213.100006 51.899998 A 1.2 1.2 0 0 1 214.300006 53.099998 Z" class="st18" style="fill: rgb(207, 186, 92);" transform="matrix(4.198465824127197, 0, 0, 4.198465824127197, -5, -4)"/>
<path d="M 217.000006 53.5 A 1.9 1.9 0 0 1 215.100006 55.4 A 1.9 1.9 0 0 1 213.200006 53.5 A 1.9 1.9 0 0 1 215.100006 51.6 A 1.9 1.9 0 0 1 217.000006 53.5 Z" class="st18" style="fill: rgb(207, 186, 92);" transform="matrix(4.198465824127197, 0, 0, 4.198465824127197, -5, -4)"/>
<path d="M 225.699994 47.5 A 3.3 3.3 0 0 1 222.399994 50.8 A 3.3 3.3 0 0 1 219.099994 47.5 A 3.3 3.3 0 0 1 222.399994 44.2 A 3.3 3.3 0 0 1 225.699994 47.5 Z" class="st13" style="fill: rgb(235, 213, 105);" transform="matrix(4.198465824127197, 0, 0, 4.198465824127197, -5, -4)"/>
<path d="M 231.499997 59.200001 A 3.3 3.3 0 0 1 228.199997 62.500001 A 3.3 3.3 0 0 1 224.899997 59.200001 A 3.3 3.3 0 0 1 228.199997 55.900001 A 3.3 3.3 0 0 1 231.499997 59.200001 Z" class="st13" style="fill: rgb(235, 213, 105);" transform="matrix(4.198465824127197, 0, 0, 4.198465824127197, -5, -4)"/>
<path d="M 229.600003 50.099998 A 9.3 9.3 0 0 1 220.300003 59.399999 A 9.3 9.3 0 0 1 211.000003 50.099998 A 9.3 9.3 0 0 1 220.300003 40.799998 A 9.3 9.3 0 0 1 229.600003 50.099998 Z" class="st15" style="fill: rgb(255, 255, 255); opacity: 0.2;" transform="matrix(4.198465824127197, 0, 0, 4.198465824127197, -5, -4)"/>
<path d="M227.8,40.8c2.8,2.2,4.5,5.6,4.5,9.4c0,6.8-5.6,12.2-12.6,12.2c-3.9,0-7.3-1.7-9.6-4.4c1.9,5.2,7,8.8,13,8.8&#10;&#9;&#9;c7.6,0,13.8-6,13.8-13.4C236.9,47.6,233.1,42.7,227.8,40.8z" transform="matrix(4.198465824127197, 0, 0, 4.198465824127197, -5, -4)" style="opacity: 0.03;"/>
<g transform="matrix(4.198465824127197, 0, 0, 4.198465824127197, -5, -4)">
		<path d="M 101.500004 91.800003 A 16.700001 16.799999 0 0 1 84.800003 108.600002 A 16.700001 16.799999 0 0 1 68.100002 91.800003 A 16.700001 16.799999 0 0 1 84.800003 75.000004 A 16.700001 16.799999 0 0 1 101.500004 91.800003 Z" class="st10" style="fill: rgb(250, 139, 79);"/>
	</g>
<path d="M 95.2 85.400002 A 2.2 2.2 0 0 1 93 87.600002 A 2.2 2.2 0 0 1 90.8 85.400002 A 2.2 2.2 0 0 1 93 83.200001 A 2.2 2.2 0 0 1 95.2 85.400002 Z" class="st11" style="fill: rgb(227, 126, 72);" transform="matrix(4.198465824127197, 0, 0, 4.198465824127197, -5, -4)"/>
<path d="M 78.700001 82.599998 A 1.3 1.3 0 0 1 77.400002 83.899998 A 1.3 1.3 0 0 1 76.100002 82.599998 A 1.3 1.3 0 0 1 77.400002 81.299999 A 1.3 1.3 0 0 1 78.700001 82.599998 Z" class="st11" style="fill: rgb(227, 126, 72);" transform="matrix(4.198465824127197, 0, 0, 4.198465824127197, -5, -4)"/>
<path d="M 85.600003 103.099998 A 1.3 1.3 0 0 1 84.300003 104.399998 A 1.3 1.3 0 0 1 83.000003 103.099998 A 1.3 1.3 0 0 1 84.300003 101.799999 A 1.3 1.3 0 0 1 85.600003 103.099998 Z" class="st11" style="fill: rgb(227, 126, 72);" transform="matrix(4.198465824127197, 0, 0, 4.198465824127197, -5, -4)"/>
<path d="M 78.700001 100.400002 A 1.3 1.3 0 0 1 77.400002 101.700001 A 1.3 1.3 0 0 1 76.100002 100.400002 A 1.3 1.3 0 0 1 77.400002 99.100002 A 1.3 1.3 0 0 1 78.700001 100.400002 Z" class="st11" style="fill: rgb(227, 126, 72);" transform="matrix(4.198465824127197, 0, 0, 4.198465824127197, -5, -4)"/>
<path d="M 84.3 94.300003 A 1.3 1.3 0 0 1 83 95.600003 A 1.3 1.3 0 0 1 81.7 94.300003 A 1.3 1.3 0 0 1 83 93.000003 A 1.3 1.3 0 0 1 84.3 94.300003 Z" class="st11" style="fill: rgb(227, 126, 72);" transform="matrix(4.198465824127197, 0, 0, 4.198465824127197, -5, -4)"/>
<path d="M 88.899998 79.300003 A 1.3 1.3 0 0 1 87.599998 80.600003 A 1.3 1.3 0 0 1 86.299999 79.300003 A 1.3 1.3 0 0 1 87.599998 78.000003 A 1.3 1.3 0 0 1 88.899998 79.300003 Z" class="st11" style="fill: rgb(227, 126, 72);" transform="matrix(4.198465824127197, 0, 0, 4.198465824127197, -5, -4)"/>
<path d="M 92.100003 91.599998 A 1.3 1.3 0 0 1 90.800003 92.899998 A 1.3 1.3 0 0 1 89.500003 91.599998 A 1.3 1.3 0 0 1 90.800003 90.299999 A 1.3 1.3 0 0 1 92.100003 91.599998 Z" class="st11" style="fill: rgb(227, 126, 72);" transform="matrix(4.198465824127197, 0, 0, 4.198465824127197, -5, -4)"/>
<path d="M 87.6 89.099998 A 1.6 1.6 0 0 1 86 90.699998 A 1.6 1.6 0 0 1 84.4 89.099998 A 1.6 1.6 0 0 1 86 87.499998 A 1.6 1.6 0 0 1 87.6 89.099998 Z" class="st11" style="fill: rgb(227, 126, 72);" transform="matrix(4.198465824127197, 0, 0, 4.198465824127197, -5, -4)"/>
<path d="M 96.199998 96.300003 A 1.6 1.6 0 0 1 94.599998 97.900003 A 1.6 1.6 0 0 1 92.999998 96.300003 A 1.6 1.6 0 0 1 94.599998 94.700003 A 1.6 1.6 0 0 1 96.199998 96.300003 Z" class="st11" style="fill: rgb(227, 126, 72);" transform="matrix(4.198465824127197, 0, 0, 4.198465824127197, -5, -4)"/>
<path d="M 75.200001 91.599998 A 1.3 1.3 0 0 1 73.900002 92.899998 A 1.3 1.3 0 0 1 72.600002 91.599998 A 1.3 1.3 0 0 1 73.900002 90.299999 A 1.3 1.3 0 0 1 75.200001 91.599998 Z" class="st11" style="fill: rgb(227, 126, 72);" transform="matrix(4.198465824127197, 0, 0, 4.198465824127197, -5, -4)"/>
<path d="M 78.299999 92.199997 A 2.2 2.2 0 0 1 76.099998 94.399997 A 2.2 2.2 0 0 1 73.899998 92.199997 A 2.2 2.2 0 0 1 76.099998 89.999997 A 2.2 2.2 0 0 1 78.299999 92.199997 Z" class="st11" style="fill: rgb(227, 126, 72);" transform="matrix(4.198465824127197, 0, 0, 4.198465824127197, -5, -4)"/>
<path d="M 88.000003 85.400002 A 3.7 3.7 0 0 1 84.300003 89.100002 A 3.7 3.7 0 0 1 80.600003 85.400002 A 3.7 3.7 0 0 1 84.300003 81.700001 A 3.7 3.7 0 0 1 88.000003 85.400002 Z" class="st11" style="fill: rgb(227, 126, 72);" transform="matrix(4.198465824127197, 0, 0, 4.198465824127197, -5, -4)"/>
<path d="M 94.500003 98.5 A 3.7 3.7 0 0 1 90.800003 102.2 A 3.7 3.7 0 0 1 87.100003 98.5 A 3.7 3.7 0 0 1 90.800003 94.8 A 3.7 3.7 0 0 1 94.500003 98.5 Z" class="st11" style="fill: rgb(227, 126, 72);" transform="matrix(4.198465824127197, 0, 0, 4.198465824127197, -5, -4)"/>
<path d="M 92.200002 89.300003 A 9.3 9.3 0 0 1 82.900002 98.600003 A 9.3 9.3 0 0 1 73.600001 89.300003 A 9.3 9.3 0 0 1 82.900002 80.000003 A 9.3 9.3 0 0 1 92.200002 89.300003 Z" class="st15" style="fill: rgb(255, 255, 255); opacity: 0.2;" transform="matrix(4.198465824127197, 0, 0, 4.198465824127197, -5, -4)"/>
<path d="M90.3,79.9c2.8,2.2,4.5,5.6,4.5,9.4c0,6.8-5.6,12.2-12.6,12.2c-3.9,0-7.3-1.7-9.6-4.4c1.9,5.2,7,8.8,13,8.8&#10;&#9;&#9;c7.6,0,13.8-6,13.8-13.4C99.4,86.7,95.6,81.8,90.3,79.9z" transform="matrix(4.198465824127197, 0, 0, 4.198465824127197, -5, -4)" style="opacity: 0.08;"/>
<path d="M 278.100006 170.699997 H 289.900006 V 174.899997 H 278.100006 V 170.699997 Z" transform="matrix(4.098122596740723, 0.9127465486526488, -0.9127465486526488, 4.098122596740723, 181.27374267578125, -245.8387603759765)" class="st17" style="fill: rgb(255, 230, 115);"/>
<path class="st21" d="M280.3,146.5c0,0-12.6,3-16.1,20.3c0,0,6.2-3.7,13.2-2.1" style="fill: rgb(245, 160, 0);" transform="matrix(4.198465824127197, 0, 0, 4.198465824127197, -5, -4)"/>
<path class="st21" d="M297.6,150.4c0,0,10,8.1,5.9,25.2c0,0-4.1-6-11-7.5" style="fill: rgb(245, 160, 0);" transform="matrix(4.198465824127197, 0, 0, 4.198465824127197, -5, -4)"/>
<path class="st3" d="M296.9,113.8c0,0-14.1,7-18.2,25.4c-4.1,18.4-3.7,31.3-3.7,31.3l8.8,2l8.8,2c0,0,5.8-11.5,9.9-29.9&#10;&#9;&#9;C306.6,126.1,296.9,113.8,296.9,113.8z" style="fill: rgb(250, 116, 52);" transform="matrix(4.198465824127197, 0, 0, 4.198465824127197, -5, -4)"/>
<path class="st17" d="M303.1,129.5l-9.2-2.1l-9.2-2.1c-2.4,3.6-4.7,8.2-5.9,13.9c-1.1,4.9-1.9,9.4-2.4,13.4l11.4,2.5l11.4,2.5&#10;&#9;&#9;c1.2-3.8,2.4-8.2,3.5-13.1C303.8,138.9,303.7,133.8,303.1,129.5z" style="fill: rgb(255, 230, 115);" transform="matrix(4.198465824127197, 0, 0, 4.198465824127197, -5, -4)"/>
<path class="st21" d="M302.2,125.3l-7.5-1.7l-7.5-1.7c-2.1,2.4-4.1,5.5-5.8,9.2l11.1,2.5l11.1,2.5&#10;&#9;&#9;C303.6,132.1,303,128.4,302.2,125.3z" style="fill: rgb(245, 160, 0);" transform="matrix(4.198465824127197, 0, 0, 4.198465824127197, -5, -4)"/>
<path class="st22" d="M301.2,149.8c0.1-0.5,0.3-1.1,0.4-1.6c0,0,0-0.1,0-0.1c0.1-0.5,0.3-1.1,0.4-1.6c0,0,0-0.1,0-0.1&#10;&#9;&#9;c0.1-0.6,0.3-1.2,0.4-1.8c0.1-0.7,0.3-1.3,0.4-1.9c0-0.2,0.1-0.4,0.1-0.6c0.1-0.5,0.1-0.9,0.2-1.4c0-0.2,0-0.4,0.1-0.6&#10;&#9;&#9;c0-0.5,0.1-0.9,0.1-1.3c0-0.2,0-0.3,0-0.5c0-0.6,0.1-1.1,0.1-1.7c0,0,0,0,0-0.1c0-0.1,0-0.2,0-0.4l0,0c0,0,0-0.1,0-0.1&#10;&#9;&#9;c0-0.5,0-0.9,0-1.3c0-0.1,0-0.1,0-0.2c0-0.5,0-1-0.1-1.5c0-0.1,0-0.2,0-0.3c0-0.5-0.1-0.9-0.1-1.4c0-0.1,0-0.2,0-0.3&#10;&#9;&#9;c-1.2-10.7-6.4-17.2-6.4-17.2s0,0-0.1,0l-2.2,9.8l-0.8,3.8l-1.4,6.3l-4.8,21.5l-3.8,17.4l8.8,2&#10;&#9;&#9;C292.6,174.5,297.3,165.2,301.2,149.8C301.2,149.9,301.2,149.9,301.2,149.8z" style="fill: rgb(29, 29, 27); opacity: 0.1;" transform="matrix(4.198465824127197, 0, 0, 4.198465824127197, -5, -4)"/>
<g transform="matrix(4.198465824127197, 0, 0, 4.198465824127197, -5, -4)">
		<g>
			<path class="st8" d="M296.5,145.3c-0.8,3.5-4.3,5.8-7.8,5c-3.5-0.8-5.7-4.3-5-7.8c0.8-3.5,4.3-5.8,7.8-5&#10;&#9;&#9;&#9;&#9;C295,138.3,297.3,141.8,296.5,145.3z" style="fill: rgb(154, 84, 72);"/>
		</g>
	</g><g transform="matrix(4.198465824127197, 0, 0, 4.198465824127197, -5, -4)">
			<path class="st8" d="M295.3,144.4c-0.7,3.1-3.7,5.1-6.8,4.4c-3.1-0.7-5-3.7-4.4-6.8c0.7-3.1,3.7-5.1,6.8-4.4&#10;&#9;&#9;&#9;&#9;C294,138.2,296,141.3,295.3,144.4z" style="fill: rgb(154, 84, 72);"/>
		</g><g transform="matrix(4.198465824127197, 0, 0, 4.198465824127197, -5, -4)">
			<path class="st8" d="M288.6,150.8c-3.7-0.8-6.1-4.6-5.3-8.3c0.8-3.8,4.6-6.2,8.3-5.3l0,0c3.7,0.8,6.1,4.6,5.3,8.3&#10;&#9;&#9;&#9;&#9;C296.1,149.2,292.4,151.6,288.6,150.8L288.6,150.8z M291.4,138c-3.3-0.7-6.5,1.4-7.3,4.7c-0.7,3.3,1.4,6.6,4.6,7.3l0,0&#10;&#9;&#9;&#9;&#9;c3.3,0.7,6.5-1.4,7.3-4.7C296.8,141.9,294.7,138.7,291.4,138z" style="fill: rgb(154, 84, 72);"/>
		</g><g transform="matrix(4.198465824127197, 0, 0, 4.198465824127197, -5, -4)">
			
				<path d="M 291.300012 141 A 1.6 1.6 0 0 1 289.700012 142.6 A 1.6 1.6 0 0 1 288.100012 141 A 1.6 1.6 0 0 1 289.700012 139.4 A 1.6 1.6 0 0 1 291.300012 141 Z" transform="matrix(0.9765 0.2157 -0.2157 0.9765 37.2356 -59.1635)" class="st8" style="fill: rgb(154, 84, 72);"/>
		</g><g transform="matrix(4.198465824127197, 0, 0, 4.198465824127197, -5, -4)">
			<path d="M 287.8 141.899994 A 0.8 0.8 0 0 1 287 142.699994 A 0.8 0.8 0 0 1 286.2 141.899994 A 0.8 0.8 0 0 1 287 141.099994 A 0.8 0.8 0 0 1 287.8 141.899994 Z" class="st8" style="fill: rgb(154, 84, 72);"/>
		</g>
<g transform="matrix(4.198465824127197, 0, 0, 4.198465824127197, -5, -4)">
		<path class="st23" d="M279.1,194c0,0,16-15,3.9-17.6C270.9,173.7,279.1,194,279.1,194z" style="fill: rgb(241, 137, 6);"/>
	</g>
<g transform="matrix(4.198465824127197, 0, 0, 4.198465824127197, -5, -4)">
		<path class="st17" d="M280.3,188.5c0,0,10.3-10.5,2.7-12.2C275.4,174.7,280.3,188.5,280.3,188.5z" style="fill: rgb(255, 230, 115);"/>
	</g>
<g transform="matrix(4.198465824127197, 0, 0, 4.198465824127197, -5, -4)">
		<path class="st23" d="M34.4,115.4c0,0-7.3,20.7,4.7,17.4C51.1,129.5,34.4,115.4,34.4,115.4z" style="fill: rgb(241, 137, 6);"/>
	</g>
<g transform="matrix(4.198465824127197, 0, 0, 4.198465824127197, -5, -4)">
		<path class="st17" d="M35.9,120.7c0,0-4.3,14.1,3.3,12C46.7,130.7,35.9,120.7,35.9,120.7z" style="fill: rgb(255, 230, 115);"/>
	</g>
<path class="st24" d="M41.5,166.8c0,0-7.5-4.6-10.7-14.5c-3.2-10-6.2-19.2-6.2-19.2l14.6,10.8" style="fill: rgb(219, 126, 12);" transform="matrix(4.198465824127197, 0, 0, 4.198465824127197, -5, -4)"/>
<path class="st24" d="M57.7,161.5c0,0,3.4-8.1,0.2-18.1c-3.2-10-6.2-19.2-6.2-19.2l-5.5,17.3" style="fill: rgb(219, 126, 12);" transform="matrix(4.198465824127197, 0, 0, 4.198465824127197, -5, -4)"/>
<path class="st24" d="M37.6,137.1c-0.4-1.1,0-2.2,0.8-2.5l2.8-0.9c0.8-0.3,1.8,0.4,2.1,1.6l0,0c0.4,1.1,0,2.3-0.8,2.5l-2.8,0.9&#10;&#9;&#9;C38.9,138.9,37.9,138.2,37.6,137.1L37.6,137.1z" style="fill: rgb(219, 126, 12);" transform="matrix(4.198465824127197, 0, 0, 4.198465824127197, -5, -4)"/>
<path class="st17" d="M60.3,197.1c0,0,10.6-10.4,7-21.3c-3.5-10.9-23-40.9-23-40.9l-3.8,1.3l-3.9,1.2c0,0,1.9,35.7,5.5,46.6&#10;&#9;&#9;C45.6,194.9,60.3,197.1,60.3,197.1z" style="fill: rgb(255, 230, 115);" transform="matrix(4.198465824127197, 0, 0, 4.198465824127197, -5, -4)"/>
<g transform="matrix(4.198465824127197, 0, 0, 4.198465824127197, -5, -4)">
		<path class="st8" d="M46.9,173.8c-0.9-2.9,0.6-6,3.5-6.9c2.9-0.9,6,0.6,6.9,3.5c0.9,2.9-0.6,6-3.5,6.9&#10;&#9;&#9;&#9;C51,178.2,47.9,176.7,46.9,173.8z" style="fill: rgb(154, 84, 72);"/>
	</g>
<g transform="matrix(4.198465824127197, 0, 0, 4.198465824127197, -5, -4)">
		<path class="st8" d="M48.2,173.9c-0.8-2.5,0.5-5.2,3.1-6.1c2.5-0.8,5.2,0.6,6.1,3.1c0.8,2.5-0.5,5.2-3.1,6.1&#10;&#9;&#9;&#9;C51.7,177.8,49,176.4,48.2,173.9z" style="fill: rgb(154, 84, 72);"/>
	</g>
<g transform="matrix(4.198465824127197, 0, 0, 4.198465824127197, -5, -4)">
		<path class="st8" d="M50.3,166.3c3.2-1,6.6,0.7,7.6,3.9c1,3.2-0.7,6.6-3.9,7.6c-3.2,1-6.6-0.7-7.6-3.9&#10;&#9;&#9;&#9;C45.4,170.8,47.1,167.3,50.3,166.3L50.3,166.3z M53.7,176.8c2.6-0.8,4-3.6,3.1-6.2c-0.8-2.6-3.6-4-6.2-3.2l-0.2-0.5l0.2,0.5&#10;&#9;&#9;&#9;c-2.6,0.8-4,3.6-3.1,6.2C48.3,176.2,51.1,177.6,53.7,176.8z" style="fill: rgb(154, 84, 72);"/>
	</g>
<g transform="matrix(4.198465824127197, 0, 0, 4.198465824127197, -5, -4)">
		<path class="st24" d="M60.3,197.1c0,0,7.2-7,7.7-15.6c-3.8-1.7-8.4-2-12.9-0.5c-4.5,1.5-8.1,4.5-10.2,8&#10;&#9;&#9;&#9;C50.3,195.6,60.3,197.1,60.3,197.1z" style="fill: rgb(219, 126, 12);"/>
	</g>
<path class="st3" d="M42.9,153.4c-0.5-1.6,0.4-3.3,1.9-3.8l0,0c1.6-0.5,3.3,0.4,3.8,1.9l2.5,7.8c0.5,1.6-0.4,3.3-1.9,3.8l0,0&#10;&#9;&#9;c-1.6,0.5-3.3-0.4-3.8-1.9L42.9,153.4z" style="fill: rgb(250, 116, 52);" transform="matrix(4.198465824127197, 0, 0, 4.198465824127197, -5, -4)"/>
<path class="st8" d="M46.5,160.7c-0.3-0.9,0.2-2,1.1-2.3c0.9-0.3,2,0.2,2.3,1.1c0.3,0.9-0.2,2-1.2,2.3&#10;&#9;&#9;C47.9,162.1,46.8,161.6,46.5,160.7z" style="fill: rgb(154, 84, 72);" transform="matrix(4.198465824127197, 0, 0, 4.198465824127197, -5, -4)"/>
<path class="st8" d="M45.7,154.5c-0.1-0.4,0.1-0.8,0.5-0.9c0.4-0.1,0.8,0.1,0.9,0.5c0.1,0.4-0.1,0.8-0.5,0.9&#10;&#9;&#9;C46.2,155.1,45.8,154.9,45.7,154.5z" style="fill: rgb(154, 84, 72);" transform="matrix(4.198465824127197, 0, 0, 4.198465824127197, -5, -4)"/>
<path class="st8" d="M44.9,152.2c-0.1-0.4,0.1-0.8,0.5-0.9c0.4-0.1,0.8,0.1,0.9,0.5c0.1,0.4-0.1,0.8-0.5,0.9&#10;&#9;&#9;C45.5,152.8,45,152.6,44.9,152.2z" style="fill: rgb(154, 84, 72);" transform="matrix(4.198465824127197, 0, 0, 4.198465824127197, -5, -4)"/>
<path d="M 44.099998 156.100006 H 50.099998 V 157.500006 H 44.099998 V 156.100006 Z" transform="matrix(-3.9931612014770503, 1.296486258506775, -1.296486258506775, -3.9931612014770503, 584.5557250976561, 1219.0894775390623)" class="st8" style="fill: rgb(154, 84, 72);"/>
<path class="st22" d="M57.8,143.5c-3.2-10-6.2-19.2-6.2-19.2L46.9,139c-1.6-2.5-2.6-4.1-2.6-4.1l-1,0.3c-0.4-1.1-1.3-1.8-2.1-1.6&#10;&#9;&#9;l-0.5,0.1l0.6,2l0.6,2l3.6,11.6l2.7,8.8l1,3.2l0.4,1.4l1,3.2l0.2,0.5l0.2,0.6l0.2,0.6l2.7,8.8l0.1,0.4l0,0.1l0.2,0.5l1,3.2l5,16.1&#10;&#9;&#9;c0,0,0.1,0,0.1,0s10.6-10.4,7-21.3c-1.3-4-4.8-10.7-8.7-17.5C59.3,155,59.8,149.6,57.8,143.5z" style="fill: rgb(29, 29, 27); opacity: 0.1;" transform="matrix(4.198465824127197, 0, 0, 4.198465824127197, -5, -4)"/>
<path d="M 111.3 134.800003 A 14.3 14.3 0 0 1 97 149.100003 A 14.3 14.3 0 0 1 82.7 134.800003 A 14.3 14.3 0 0 1 97 120.500003 A 14.3 14.3 0 0 1 111.3 134.800003 Z" class="st5" style="fill: rgb(248, 233, 211);" transform="matrix(4.198465824127197, 0, 0, 4.198465824127197, -5, -4)"/>
<path d="M 253.199997 130.199997 A 19 19 0 0 1 234.199997 149.199997 A 19 19 0 0 1 215.199997 130.199997 A 19 19 0 0 1 234.199997 111.199997 A 19 19 0 0 1 253.199997 130.199997 Z" class="st5" style="fill: rgb(248, 233, 211);" transform="matrix(4.198465824127197, 0, 0, 4.198465824127197, -5, -4)"/>
<path d="M 142.900006 134.800003 A 14.3 14.3 0 0 1 128.600006 149.100003 A 14.3 14.3 0 0 1 114.300006 134.800003 A 14.3 14.3 0 0 1 128.600006 120.500003 A 14.3 14.3 0 0 1 142.900006 134.800003 Z" class="st5" style="fill: rgb(248, 233, 211);" transform="matrix(4.198465824127197, 0, 0, 4.198465824127197, -5, -4)"/>
<path d="M 203.600003 125 A 14.3 14.3 0 0 1 189.300003 139.3 A 14.3 14.3 0 0 1 175.000003 125 A 14.3 14.3 0 0 1 189.300003 110.7 A 14.3 14.3 0 0 1 203.600003 125 Z" class="st5" style="fill: rgb(248, 233, 211);" transform="matrix(4.198465824127197, 0, 0, 4.198465824127197, -5, -4)"/>
<path d="M 159.899997 125.599998 A 12.2 12.2 0 0 1 147.699997 137.799998 A 12.2 12.2 0 0 1 135.499997 125.599998 A 12.2 12.2 0 0 1 147.699997 113.399999 A 12.2 12.2 0 0 1 159.899997 125.599998 Z" class="st5" style="fill: rgb(248, 233, 211);" transform="matrix(4.198465824127197, 0, 0, 4.198465824127197, -5, -4)"/>
<path d="M 221.300006 129.100006 A 12.2 12.2 0 0 1 209.100006 141.300006 A 12.2 12.2 0 0 1 196.900006 129.100006 A 12.2 12.2 0 0 1 209.100006 116.900006 A 12.2 12.2 0 0 1 221.300006 129.100006 Z" class="st5" style="fill: rgb(248, 233, 211);" transform="matrix(4.198465824127197, 0, 0, 4.198465824127197, -5, -4)"/>
<path d="M 124.199999 125.199997 A 11.6 11.6 0 0 1 112.599998 136.799997 A 11.6 11.6 0 0 1 100.999998 125.199997 A 11.6 11.6 0 0 1 112.599998 113.599997 A 11.6 11.6 0 0 1 124.199999 125.199997 Z" class="st5" style="fill: rgb(248, 233, 211);" transform="matrix(4.198465824127197, 0, 0, 4.198465824127197, -5, -4)"/>
<path d="M 177.499994 130.800003 A 11.6 11.6 0 0 1 165.899994 142.400003 A 11.6 11.6 0 0 1 154.299994 130.800003 A 11.6 11.6 0 0 1 165.899994 119.200003 A 11.6 11.6 0 0 1 177.499994 130.800003 Z" class="st5" style="fill: rgb(248, 233, 211);" transform="matrix(4.198465824127197, 0, 0, 4.198465824127197, -5, -4)"/>
<path d="M 97 149.199997 L 235.899994 149.199997 L 234.199997 127.900002 L 107.099998 127.900002" class="st5" style="fill: rgb(248, 233, 211);" transform="matrix(4.198465824127197, 0, 0, 4.198465824127197, -5, -4)"/>
<path d="M 197.800003 93.900002 H 206.900003 V 123.900002 H 197.800003 V 93.900002 Z" class="st5" style="fill: rgb(248, 233, 211);" transform="matrix(4.198465824127197, 0, 0, 4.198465824127197, -5, -4)"/>
<path d="M 129.600006 93.900002 H 138.700006 V 123.900002 H 129.600006 V 93.900002 Z" class="st5" style="fill: rgb(248, 233, 211);" transform="matrix(4.198465824127197, 0, 0, 4.198465824127197, -5, -4)"/>
<path d="M 163.800003 106.400002 H 172.900003 V 136.400002 H 163.800003 V 106.400002 Z" class="st5" style="fill: rgb(248, 233, 211);" transform="matrix(4.198465824127197, 0, 0, 4.198465824127197, -5, -4)"/>
<path d="M 166.899994 50.5 H 169.799994 V 112.400002 H 166.899994 V 50.5 Z" class="st9" style="fill: rgb(248, 122, 50);" transform="matrix(4.198465824127197, 0, 0, 4.198465824127197, -5, -4)"/>
<path d="M 203.599994 157.100006 A 5.2 5.2 0 0 1 198.399994 162.300006 A 5.2 5.2 0 0 1 193.199994 157.100006 A 5.2 5.2 0 0 1 198.399994 151.900006 A 5.2 5.2 0 0 1 203.599994 157.100006 Z" class="st3" style="fill: rgb(250, 116, 52);" transform="matrix(4.198465824127197, 0, 0, 4.198465824127197, -5, -4)"/>
<path d="M 150.900003 181.600006 A 9.1 9.1 0 0 1 141.800003 190.700006 A 9.1 9.1 0 0 1 132.700003 181.600006 A 9.1 9.1 0 0 1 141.800003 172.500006 A 9.1 9.1 0 0 1 150.900003 181.600006 Z" class="st3" style="fill: rgb(250, 116, 52);" transform="matrix(4.198465824127197, 0, 0, 4.198465824127197, -5, -4)"/>
<path d="M 166.900003 157.100006 A 6.1 6.1 0 0 1 160.800003 163.200006 A 6.1 6.1 0 0 1 154.700003 157.100006 A 6.1 6.1 0 0 1 160.800003 151.000006 A 6.1 6.1 0 0 1 166.900003 157.100006 Z" class="st4" style="fill: rgb(252, 171, 15);" transform="matrix(4.198465824127197, 0, 0, 4.198465824127197, -5, -4)"/>
<path d="M 191.400003 181.600006 A 6.1 6.1 0 0 1 185.300003 187.700006 A 6.1 6.1 0 0 1 179.200003 181.600006 A 6.1 6.1 0 0 1 185.300003 175.500006 A 6.1 6.1 0 0 1 191.400003 181.600006 Z" class="st4" style="fill: rgb(252, 171, 15);" transform="matrix(4.198465824127197, 0, 0, 4.198465824127197, -5, -4)"/>
<path d="M 127.099997 158.5 A 8.4 8.4 0 0 1 118.699997 166.9 A 8.4 8.4 0 0 1 110.299997 158.5 A 8.4 8.4 0 0 1 118.699997 150.1 A 8.4 8.4 0 0 1 127.099997 158.5 Z" class="st4" style="fill: rgb(252, 171, 15);" transform="matrix(4.198465824127197, 0, 0, 4.198465824127197, -5, -4)"/>
<path d="M 188.400003 181.600006 A 3.1 3.1 0 0 1 185.300003 184.700006 A 3.1 3.1 0 0 1 182.200003 181.600006 A 3.1 3.1 0 0 1 185.300003 178.500006 A 3.1 3.1 0 0 1 188.400003 181.600006 Z" class="st3" style="fill: rgb(250, 116, 52);" transform="matrix(4.198465824127197, 0, 0, 4.198465824127197, -5, -4)"/>
<path d="M 163.900003 157.100006 A 3.1 3.1 0 0 1 160.800003 160.200006 A 3.1 3.1 0 0 1 157.700003 157.100006 A 3.1 3.1 0 0 1 160.800003 154.000006 A 3.1 3.1 0 0 1 163.900003 157.100006 Z" class="st3" style="fill: rgb(250, 116, 52);" transform="matrix(4.198465824127197, 0, 0, 4.198465824127197, -5, -4)"/>
<path d="M 122.899997 158.5 A 4.2 4.2 0 0 1 118.699997 162.7 A 4.2 4.2 0 0 1 114.499997 158.5 A 4.2 4.2 0 0 1 118.699997 154.3 A 4.2 4.2 0 0 1 122.899997 158.5 Z" class="st3" style="fill: rgb(250, 116, 52);" transform="matrix(4.198465824127197, 0, 0, 4.198465824127197, -5, -4)"/>
<g transform="matrix(4.198465824127197, 0, 0, 4.198465824127197, -5, -4)">
		<path class="st15" d="M314.5,45.9c-0.2,0-0.3-0.1-0.4-0.2l-1.1-1.7c-0.1-0.2-0.1-0.5,0.2-0.7c0.2-0.1,0.5-0.1,0.7,0.2l1.1,1.7&#10;&#9;&#9;&#9;c0.1,0.2,0.1,0.5-0.2,0.7C314.7,45.9,314.6,45.9,314.5,45.9z" style="fill: rgb(255, 255, 255);"/>
	</g><path class="st15" d="M311.1,40.5c-0.2,0-0.3-0.1-0.4-0.2l-2.3-3.7c-0.1-0.2-0.1-0.5,0.2-0.7c0.2-0.1,0.5-0.1,0.7,0.2l2.3,3.7&#10;&#9;&#9;&#9;c0.1,0.2,0.1,0.5-0.2,0.7C311.3,40.5,311.2,40.5,311.1,40.5z M306.6,33.2c-0.2,0-0.3-0.1-0.4-0.2l-2.3-3.7&#10;&#9;&#9;&#9;c-0.1-0.2-0.1-0.5,0.2-0.7c0.2-0.1,0.5-0.1,0.7,0.2l2.3,3.7c0.1,0.2,0.1,0.5-0.2,0.7C306.8,33.1,306.7,33.2,306.6,33.2z M302,25.8&#10;&#9;&#9;&#9;c-0.2,0-0.3-0.1-0.4-0.2l-2.3-3.7c-0.1-0.2-0.1-0.5,0.2-0.7c0.2-0.1,0.5-0.1,0.7,0.2l2.3,3.7c0.1,0.2,0.1,0.5-0.2,0.7&#10;&#9;&#9;&#9;C302.2,25.8,302.1,25.8,302,25.8z" style="fill: rgb(255, 255, 255);" transform="matrix(4.198465824127197, 0, 0, 4.198465824127197, -5, -4)"/><path class="st15" d="M297.5,18.5c-0.2,0-0.3-0.1-0.4-0.2l-0.9-1.4l-1.7,0.1c-0.3,0-0.5-0.2-0.5-0.5c0-0.3,0.2-0.5,0.5-0.5&#10;&#9;&#9;&#9;l2.3-0.2l1.2,2c0.1,0.2,0.1,0.5-0.2,0.7C297.6,18.5,297.6,18.5,297.5,18.5z" style="fill: rgb(255, 255, 255);" transform="matrix(4.198465824127197, 0, 0, 4.198465824127197, -5, -4)"/><path class="st15" d="M252,19.9c-0.3,0-0.5-0.2-0.5-0.5c0-0.3,0.2-0.5,0.5-0.5l4.2-0.3c0.2,0,0.5,0.2,0.5,0.5&#10;&#9;&#9;&#9;c0,0.3-0.2,0.5-0.5,0.5L252,19.9C252,19.9,252,19.9,252,19.9z M260.5,19.3c-0.3,0-0.5-0.2-0.5-0.5c0-0.3,0.2-0.5,0.5-0.5l4.2-0.3&#10;&#9;&#9;&#9;c0.2,0,0.5,0.2,0.5,0.5c0,0.3-0.2,0.5-0.5,0.5L260.5,19.3C260.5,19.3,260.5,19.3,260.5,19.3z M268.9,18.7c-0.3,0-0.5-0.2-0.5-0.5&#10;&#9;&#9;&#9;c0-0.3,0.2-0.5,0.5-0.5l4.2-0.3c0.2,0,0.5,0.2,0.5,0.5c0,0.3-0.2,0.5-0.5,0.5L268.9,18.7C269,18.7,269,18.7,268.9,18.7z&#10;&#9;&#9;&#9; M277.4,18.1c-0.3,0-0.5-0.2-0.5-0.5c0-0.3,0.2-0.5,0.5-0.5l4.2-0.3c0.2,0,0.5,0.2,0.5,0.5c0,0.3-0.2,0.5-0.5,0.5L277.4,18.1&#10;&#9;&#9;&#9;C277.5,18.1,277.4,18.1,277.4,18.1z M285.9,17.5c-0.3,0-0.5-0.2-0.5-0.5c0-0.3,0.2-0.5,0.5-0.5l4.2-0.3c0.2,0,0.5,0.2,0.5,0.5&#10;&#9;&#9;&#9;c0,0.3-0.2,0.5-0.5,0.5L285.9,17.5C285.9,17.5,285.9,17.5,285.9,17.5z" style="fill: rgb(255, 255, 255);" transform="matrix(4.198465824127197, 0, 0, 4.198465824127197, -5, -4)"/><path class="st15" d="M245.7,20.4c-0.3,0-0.5-0.2-0.5-0.5c0-0.3,0.2-0.5,0.5-0.5l2-0.1c0.2,0,0.5,0.2,0.5,0.5&#10;&#9;&#9;&#9;c0,0.3-0.2,0.5-0.5,0.5L245.7,20.4C245.8,20.4,245.7,20.4,245.7,20.4z" style="fill: rgb(255, 255, 255);" transform="matrix(4.198465824127197, 0, 0, 4.198465824127197, -5, -4)"/>
<g transform="matrix(4.198465824127197, 0, 0, 4.198465824127197, -5, -4)">
		
			<path d="M 301.799994 16.299999 A 5.4 5.4 0 0 1 296.399994 21.699999 A 5.4 5.4 0 0 1 290.999994 16.299999 A 5.4 5.4 0 0 1 296.399994 10.899999 A 5.4 5.4 0 0 1 301.799994 16.299999 Z" transform="matrix(-0.7072 -0.7071 0.7071 -0.7072 494.5053 237.3705)" class="st17" style="fill: rgb(255, 230, 115);"/>
	</g>
<g transform="matrix(4.198465824127197, 0, 0, 4.198465824127197, -5, -4)">
		<path d="M 28.4 95 A 5.4 5.4 0 0 1 23 100.4 A 5.4 5.4 0 0 1 17.6 95 A 5.4 5.4 0 0 1 23 89.6 A 5.4 5.4 0 0 1 28.4 95 Z" transform="matrix(-0.7071 -0.7071 0.7071 -0.7071 -28.0065 178.4599)" class="st17" style="fill: rgb(255, 230, 115);"/>
	</g>
<g transform="matrix(4.198465824127197, 0, 0, 4.198465824127197, -5, -4)">
		
			<path d="M 251.099997 19.9 A 5.4 5.4 0 0 1 245.699997 25.3 A 5.4 5.4 0 0 1 240.299997 19.9 A 5.4 5.4 0 0 1 245.699997 14.5 A 5.4 5.4 0 0 1 251.099997 19.9 Z" transform="matrix(-0.7071 -0.7071 0.7071 -0.7071 405.45 207.6578)" class="st4" style="fill: rgb(252, 171, 15);"/>
	</g>
<g transform="matrix(4.198465824127197, 0, 0, 4.198465824127197, -5, -4)">
		
			<path d="M 319.9 99.800003 A 5.4 5.4 0 0 1 314.5 105.200003 A 5.4 5.4 0 0 1 309.1 99.800003 A 5.4 5.4 0 0 1 314.5 94.400003 A 5.4 5.4 0 0 1 319.9 99.800003 Z" transform="matrix(-0.7071 -0.7071 0.7071 -0.7071 466.2752 392.7115)" class="st4" style="fill: rgb(252, 171, 15);"/>
	</g>
<g transform="matrix(4.198465824127197, 0, 0, 4.198465824127197, -5, -4)">
		<path d="M 317.4 45.400002 A 2.9 2.9 0 0 1 314.5 48.300002 A 2.9 2.9 0 0 1 311.6 45.400002 A 2.9 2.9 0 0 1 314.5 42.500001 A 2.9 2.9 0 0 1 317.4 45.400002 Z" transform="matrix(-0.707 -0.7072 0.7072 -0.707 504.7137 299.86)" class="st3" style="fill: rgb(250, 116, 52);"/>
	</g>
<g transform="matrix(4.198465824127197, 0, 0, 4.198465824127197, -5, -4)">
		<path d="M 284.199988 99 A 2.9 2.9 0 0 1 281.299988 101.9 A 2.9 2.9 0 0 1 278.399988 99 A 2.9 2.9 0 0 1 281.299988 96.1 A 2.9 2.9 0 0 1 284.199988 99 Z" transform="matrix(-0.707 -0.7072 0.7072 -0.707 410.1523 367.961)" class="st3" style="fill: rgb(250, 116, 52);"/>
	</g>
<g transform="matrix(4.198465824127197, 0, 0, 4.198465824127197, -5, -4)">
		<path d="M 52.199999 92.199997 A 2.9 2.9 0 0 1 49.299999 95.099997 A 2.9 2.9 0 0 1 46.399999 92.199997 A 2.9 2.9 0 0 1 49.299999 89.299997 A 2.9 2.9 0 0 1 52.199999 92.199997 Z" transform="matrix(-0.707 -0.7072 0.7072 -0.707 18.9312 192.1759)" class="st3" style="fill: rgb(250, 116, 52);"/>
	</g>
<path class="st15" d="M132.4,25.8c0,0-0.1,0-0.1,0l-3.9-1c-0.3-0.1-0.4-0.3-0.4-0.6c0.1-0.3,0.3-0.4,0.6-0.4l3.9,1&#10;&#9;&#9;c0.3,0.1,0.4,0.3,0.4,0.6C132.8,25.6,132.6,25.8,132.4,25.8z M124.7,23.7c0,0-0.1,0-0.1,0l-3.9-1c-0.3-0.1-0.4-0.3-0.4-0.6&#10;&#9;&#9;c0.1-0.3,0.3-0.4,0.6-0.4l3.9,1c0.3,0.1,0.4,0.3,0.4,0.6C125.1,23.6,124.9,23.7,124.7,23.7z M116.9,21.7c0,0-0.1,0-0.1,0l-3.9-1&#10;&#9;&#9;c-0.3-0.1-0.4-0.3-0.4-0.6c0.1-0.3,0.3-0.4,0.6-0.4l3.9,1c0.3,0.1,0.4,0.3,0.4,0.6C117.4,21.5,117.2,21.7,116.9,21.7z M109.2,19.6&#10;&#9;&#9;c0,0-0.1,0-0.1,0l-3.9-1c-0.3-0.1-0.4-0.3-0.4-0.6c0.1-0.3,0.3-0.4,0.6-0.4l3.9,1c0.3,0.1,0.4,0.3,0.4,0.6&#10;&#9;&#9;C109.6,19.5,109.4,19.6,109.2,19.6z M101.5,17.6c0,0-0.1,0-0.1,0l-0.5-0.1c-0.3-0.1-0.4-0.3-0.4-0.6c0.1-0.3,0.3-0.4,0.6-0.4&#10;&#9;&#9;l0.5,0.1c0.3,0.1,0.4,0.3,0.4,0.6C101.9,17.4,101.7,17.6,101.5,17.6z" style="fill: rgb(255, 255, 255);" transform="matrix(4.198465824127197, 0, 0, 4.198465824127197, -5, -4)"/>
<path class="st15" d="M52.4,216.7l-2.5-1.2c-0.2-0.1-0.4-0.4-0.2-0.7c0.1-0.2,0.4-0.4,0.7-0.2l2.2,1.1l1.1-0.2&#10;&#9;&#9;c0.3-0.1,0.5,0.1,0.6,0.4c0.1,0.3-0.1,0.5-0.4,0.6L52.4,216.7z M57.7,215.5c-0.2,0-0.4-0.2-0.5-0.4c-0.1-0.3,0.1-0.5,0.4-0.6&#10;&#9;&#9;l3.9-0.8c0.3-0.1,0.5,0.1,0.6,0.4c0.1,0.3-0.1,0.5-0.4,0.6l-3.9,0.8C57.7,215.5,57.7,215.5,57.7,215.5z M65.5,213.9&#10;&#9;&#9;c-0.2,0-0.4-0.2-0.5-0.4c-0.1-0.3,0.1-0.5,0.4-0.6l3.9-0.8c0.3-0.1,0.5,0.1,0.6,0.4c0.1,0.3-0.1,0.5-0.4,0.6l-3.9,0.8&#10;&#9;&#9;C65.6,213.9,65.5,213.9,65.5,213.9z M46.5,213.7c-0.1,0-0.1,0-0.2-0.1l-3.6-1.8c-0.2-0.1-0.4-0.4-0.2-0.7c0.1-0.2,0.4-0.4,0.7-0.2&#10;&#9;&#9;l3.6,1.8c0.2,0.1,0.4,0.4,0.2,0.7C46.8,213.6,46.6,213.7,46.5,213.7z M73.3,212.2c-0.2,0-0.4-0.2-0.5-0.4c-0.1-0.3,0.1-0.5,0.4-0.6&#10;&#9;&#9;l3.9-0.8c0.3-0.1,0.5,0.1,0.6,0.4c0.1,0.3-0.1,0.5-0.4,0.6l-3.9,0.8C73.4,212.2,73.4,212.2,73.3,212.2z M81.1,210.5&#10;&#9;&#9;c-0.2,0-0.4-0.2-0.5-0.4c-0.1-0.3,0.1-0.5,0.4-0.6l3.9-0.8c0.3-0.1,0.5,0.1,0.6,0.4c0.1,0.3-0.1,0.5-0.4,0.6l-3.9,0.8&#10;&#9;&#9;C81.2,210.5,81.2,210.5,81.1,210.5z M39.3,210.2c-0.1,0-0.1,0-0.2-0.1l-3.6-1.8c-0.2-0.1-0.4-0.4-0.2-0.7c0.1-0.2,0.4-0.4,0.7-0.2&#10;&#9;&#9;l3.6,1.8c0.2,0.1,0.4,0.4,0.2,0.7C39.6,210.1,39.5,210.2,39.3,210.2z M89,208.9c-0.2,0-0.4-0.2-0.5-0.4c-0.1-0.3,0.1-0.5,0.4-0.6&#10;&#9;&#9;l0.6-0.1c0.3-0.1,0.5,0.1,0.6,0.4c0.1,0.3-0.1,0.5-0.4,0.6l-0.6,0.1C89,208.9,89,208.9,89,208.9z M32.1,206.7c-0.1,0-0.1,0-0.2-0.1&#10;&#9;&#9;l-3.6-1.8c-0.2-0.1-0.4-0.4-0.2-0.7c0.1-0.2,0.4-0.4,0.7-0.2l3.6,1.8c0.2,0.1,0.4,0.4,0.2,0.7C32.4,206.6,32.3,206.7,32.1,206.7z" style="fill: rgb(255, 255, 255);" transform="matrix(4.198465824127197, 0, 0, 4.198465824127197, -5, -4)"/>
<path class="st15" d="M253.2,210.4c-0.3,0-0.5-0.2-0.5-0.5c0-0.3,0.2-0.5,0.5-0.5l4-0.4c0.3,0,0.5,0.2,0.5,0.5&#10;&#9;&#9;c0,0.3-0.2,0.5-0.5,0.5L253.2,210.4C253.2,210.4,253.2,210.4,253.2,210.4z M261.1,209.6c-0.3,0-0.5-0.2-0.5-0.5&#10;&#9;&#9;c0-0.3,0.2-0.5,0.5-0.5l4-0.4c0.3,0,0.5,0.2,0.5,0.5c0,0.3-0.2,0.5-0.5,0.5L261.1,209.6C261.2,209.6,261.1,209.6,261.1,209.6z&#10;&#9;&#9; M269.1,208.9c-0.3,0-0.5-0.2-0.5-0.5c0-0.3,0.2-0.5,0.5-0.5l4-0.4c0.3,0,0.5,0.2,0.5,0.5c0,0.3-0.2,0.5-0.5,0.5L269.1,208.9&#10;&#9;&#9;C269.1,208.9,269.1,208.9,269.1,208.9z M277.1,208.2c-0.3,0-0.5-0.2-0.5-0.5c0-0.3,0.2-0.5,0.5-0.5l4-0.4c0.3,0,0.5,0.2,0.5,0.5&#10;&#9;&#9;c0,0.3-0.2,0.5-0.5,0.5L277.1,208.2C277.1,208.1,277.1,208.2,277.1,208.2z M285,207.4c-0.3,0-0.5-0.2-0.5-0.5&#10;&#9;&#9;c0-0.3,0.2-0.5,0.5-0.5l4-0.4c0.3,0,0.5,0.2,0.5,0.5c0,0.3-0.2,0.5-0.5,0.5L285,207.4C285.1,207.4,285,207.4,285,207.4z M293,206.7&#10;&#9;&#9;c-0.3,0-0.5-0.2-0.5-0.5c0-0.3,0.2-0.5,0.5-0.5l4-0.4c0.3,0,0.5,0.2,0.5,0.5c0,0.3-0.2,0.5-0.5,0.5L293,206.7&#10;&#9;&#9;C293,206.7,293,206.7,293,206.7z M301,205.9c-0.3,0-0.5-0.2-0.5-0.5c0-0.3,0.2-0.5,0.5-0.5l4-0.4c0.3,0,0.5,0.2,0.5,0.5&#10;&#9;&#9;c0,0.3-0.2,0.5-0.5,0.5L301,205.9C301,205.9,301,205.9,301,205.9z M308.9,205.2c-0.3,0-0.5-0.2-0.5-0.5c0-0.3,0.2-0.5,0.5-0.5&#10;&#9;&#9;l2.6-0.2c0.3,0,0.5,0.2,0.5,0.5c0,0.3-0.2,0.5-0.5,0.5L308.9,205.2C309,205.2,308.9,205.2,308.9,205.2z" style="fill: rgb(255, 255, 255);" transform="matrix(4.198465824127197, 0, 0, 4.198465824127197, -5, -4)"/>
<g transform="matrix(4.198465824127197, 0, 0, 4.198465824127197, -5, -4)">
		
			<path d="M 258.599997 209.899994 A 5.4 5.4 0 0 1 253.199997 215.299994 A 5.4 5.4 0 0 1 247.799997 209.899994 A 5.4 5.4 0 0 1 253.199997 204.499994 A 5.4 5.4 0 0 1 258.599997 209.899994 Z" transform="matrix(-0.7071 -0.7071 0.7071 -0.7071 283.7857 537.2648)" class="st17" style="fill: rgb(255, 230, 115);"/>
	</g>
<g transform="matrix(4.198465824127197, 0, 0, 4.198465824127197, -5, -4)">
		
			<path d="M 137.799994 25.299999 A 5.4 5.4 0 0 1 132.399994 30.699999 A 5.4 5.4 0 0 1 126.999994 25.299999 A 5.4 5.4 0 0 1 132.399994 19.899999 A 5.4 5.4 0 0 1 137.799994 25.299999 Z" transform="matrix(-0.7071 -0.7071 0.7071 -0.7071 208.1744 136.7365)" class="st4" style="fill: rgb(252, 171, 15);"/>
	</g>
<g transform="matrix(4.198465824127197, 0, 0, 4.198465824127197, -5, -4)">
		
			<path d="M 58.999999 216.100006 A 5.4 5.4 0 0 1 53.599998 221.500006 A 5.4 5.4 0 0 1 48.199998 216.100006 A 5.4 5.4 0 0 1 53.599998 210.700006 A 5.4 5.4 0 0 1 58.999999 216.100006 Z" transform="matrix(-0.7071 -0.7071 0.7071 -0.7071 -61.2708 406.8825)" class="st4" style="fill: rgb(252, 171, 15);"/>
	</g>
<g transform="matrix(4.198465824127197, 0, 0, 4.198465824127197, -5, -4)">
		
			<path d="M 314.500006 204.5 A 2.9 2.9 0 0 1 311.600006 207.4 A 2.9 2.9 0 0 1 308.700006 204.5 A 2.9 2.9 0 0 1 311.600006 201.6 A 2.9 2.9 0 0 1 314.500006 204.5 Z" transform="matrix(-0.707 -0.7072 0.7072 -0.707 387.2602 569.3582)" class="st3" style="fill: rgb(250, 116, 52);"/>
	</g>
<g transform="matrix(4.198465824127197, 0, 0, 4.198465824127197, -5, -4)">
		<path d="M 103.9 17 A 2.9 2.9 0 0 1 101 19.9 A 2.9 2.9 0 0 1 98.1 17 A 2.9 2.9 0 0 1 101 14.1 A 2.9 2.9 0 0 1 103.9 17 Z" transform="matrix(-0.707 -0.7072 0.7072 -0.707 160.4362 100.3736)" class="st3" style="fill: rgb(250, 116, 52);"/>
	</g>
<g transform="matrix(4.198465824127197, 0, 0, 4.198465824127197, -5, -4)">
		
			<path d="M 31.4 204.5 A 2.9 2.9 0 0 1 28.5 207.4 A 2.9 2.9 0 0 1 25.6 204.5 A 2.9 2.9 0 0 1 28.5 201.6 A 2.9 2.9 0 0 1 31.4 204.5 Z" transform="matrix(-0.707 -0.7072 0.7072 -0.707 -95.9754 369.1644)" class="st3" style="fill: rgb(250, 116, 52);"/>
	</g>
<g transform="matrix(4.198465824127197, 0, 0, 4.198465824127197, -5, -4)">
		
			<path d="M 94.999999 208.199997 A 5.4 5.4 0 0 1 89.599998 213.599997 A 5.4 5.4 0 0 1 84.199998 208.199997 A 5.4 5.4 0 0 1 89.599998 202.799997 A 5.4 5.4 0 0 1 94.999999 208.199997 Z" transform="matrix(-0.7071 -0.7071 0.7071 -0.7071 5.7402 418.8386)" class="st4" style="fill: rgb(252, 171, 15);"/>
	</g>
<path d="M 240.299997 179.899994 A 6.1 6.1 0 0 1 234.199997 185.999994 A 6.1 6.1 0 0 1 228.099997 179.899994 A 6.1 6.1 0 0 1 234.199997 173.799994 A 6.1 6.1 0 0 1 240.299997 179.899994 Z" class="st5" style="fill: rgb(248, 233, 211);" transform="matrix(4.198465824127197, 0, 0, 4.198465824127197, -5, -4)"/>
<path d="M 237.699997 179.899994 A 3.5 3.5 0 0 1 234.199997 183.399994 A 3.5 3.5 0 0 1 230.699997 179.899994 A 3.5 3.5 0 0 1 234.199997 176.399994 A 3.5 3.5 0 0 1 237.699997 179.899994 Z" class="st0" style="fill: rgb(56, 52, 75);" transform="matrix(4.198465824127197, 0, 0, 4.198465824127197, -5, -4)"/>
<path d="M 138.499994 213.600006 A 6.1 6.1 0 0 1 132.399994 219.700006 A 6.1 6.1 0 0 1 126.299994 213.600006 A 6.1 6.1 0 0 1 132.399994 207.500006 A 6.1 6.1 0 0 1 138.499994 213.600006 Z" class="st5" style="fill: rgb(248, 233, 211);" transform="matrix(4.198465824127197, 0, 0, 4.198465824127197, -5, -4)"/>
<path d="M 135.899994 213.600006 A 3.5 3.5 0 0 1 132.399994 217.100006 A 3.5 3.5 0 0 1 128.899994 213.600006 A 3.5 3.5 0 0 1 132.399994 210.100006 A 3.5 3.5 0 0 1 135.899994 213.600006 Z" class="st0" style="fill: rgb(56, 52, 75);" transform="matrix(4.198465824127197, 0, 0, 4.198465824127197, -5, -4)"/>
<path d="M 269.899988 105 A 6.1 6.1 0 0 1 263.799988 111.1 A 6.1 6.1 0 0 1 257.699988 105 A 6.1 6.1 0 0 1 263.799988 98.9 A 6.1 6.1 0 0 1 269.899988 105 Z" class="st5" style="fill: rgb(248, 233, 211);" transform="matrix(4.198465824127197, 0, 0, 4.198465824127197, -5, -4)"/>
<path d="M 267.299988 105 A 3.5 3.5 0 0 1 263.799988 108.5 A 3.5 3.5 0 0 1 260.299988 105 A 3.5 3.5 0 0 1 263.799988 101.5 A 3.5 3.5 0 0 1 267.299988 105 Z" class="st0" style="fill: rgb(56, 52, 75);" transform="matrix(4.198465824127197, 0, 0, 4.198465824127197, -5, -4)"/>
<path d="M 113.199998 60.900002 A 6.1 6.1 0 0 1 107.099998 67.000001 A 6.1 6.1 0 0 1 100.999999 60.900002 A 6.1 6.1 0 0 1 107.099998 54.800002 A 6.1 6.1 0 0 1 113.199998 60.900002 Z" class="st5" style="fill: rgb(248, 233, 211);" transform="matrix(4.198465824127197, 0, 0, 4.198465824127197, -5, -4)"/>
<path d="M 110.599998 60.900002 A 3.5 3.5 0 0 1 107.099998 64.400002 A 3.5 3.5 0 0 1 103.599998 60.900002 A 3.5 3.5 0 0 1 107.099998 57.400002 A 3.5 3.5 0 0 1 110.599998 60.900002 Z" class="st0" style="fill: rgb(56, 52, 75);" transform="matrix(4.198465824127197, 0, 0, 4.198465824127197, -5, -4)"/>
<path d="M 250.300003 87.5 A 3.5 3.5 0 0 1 246.800003 91 A 3.5 3.5 0 0 1 243.300003 87.5 A 3.5 3.5 0 0 1 246.800003 84 A 3.5 3.5 0 0 1 250.300003 87.5 Z" class="st5" style="fill: rgb(248, 233, 211);" transform="matrix(4.198465824127197, 0, 0, 4.198465824127197, -5, -4)"/>
<path d="M 248.900003 87.5 A 2.1 2.1 0 0 1 246.800003 89.6 A 2.1 2.1 0 0 1 244.700003 87.5 A 2.1 2.1 0 0 1 246.800003 85.4 A 2.1 2.1 0 0 1 248.900003 87.5 Z" class="st0" style="fill: rgb(56, 52, 75);" transform="matrix(4.198465824127197, 0, 0, 4.198465824127197, -5, -4)"/>
<path d="M 142.399994 41.799999 A 3.5 3.5 0 0 1 138.899994 45.299999 A 3.5 3.5 0 0 1 135.399994 41.799999 A 3.5 3.5 0 0 1 138.899994 38.299999 A 3.5 3.5 0 0 1 142.399994 41.799999 Z" class="st5" style="fill: rgb(248, 233, 211);" transform="matrix(4.198465824127197, 0, 0, 4.198465824127197, -5, -4)"/>
<path d="M 140.999994 41.799999 A 2.1 2.1 0 0 1 138.899994 43.899999 A 2.1 2.1 0 0 1 136.799994 41.799999 A 2.1 2.1 0 0 1 138.899994 39.699999 A 2.1 2.1 0 0 1 140.999994 41.799999 Z" class="st0" style="fill: rgb(56, 52, 75);" transform="matrix(4.198465824127197, 0, 0, 4.198465824127197, -5, -4)"/>
<path d="M 122.199997 194.199997 A 3.5 3.5 0 0 1 118.699997 197.699997 A 3.5 3.5 0 0 1 115.199997 194.199997 A 3.5 3.5 0 0 1 118.699997 190.699997 A 3.5 3.5 0 0 1 122.199997 194.199997 Z" class="st5" style="fill: rgb(248, 233, 211);" transform="matrix(4.198465824127197, 0, 0, 4.198465824127197, -5, -4)"/>
<path d="M 120.799997 194.199997 A 2.1 2.1 0 0 1 118.699997 196.299997 A 2.1 2.1 0 0 1 116.599997 194.199997 A 2.1 2.1 0 0 1 118.699997 192.099997 A 2.1 2.1 0 0 1 120.799997 194.199997 Z" class="st0" style="fill: rgb(56, 52, 75);" transform="matrix(4.198465824127197, 0, 0, 4.198465824127197, -5, -4)"/>

<path d="M 120.55999755859375 125.83999633789062 C 120.55999755859375 126.54000091552734 120.47333526611328 127.163330078125 120.30000305175781 127.70999908447266 C 120.13333129882812 128.2566680908203 119.90333557128906 128.73666381835938 119.61000061035156 129.14999389648438 C 119.31666564941406 129.57000732421875 118.97666931152344 129.92999267578125 118.58999633789062 130.22999572753906 C 118.20999908447266 130.52333068847656 117.80999755859375 130.76666259765625 117.38999938964844 130.9600067138672 C 116.97666931152344 131.15333557128906 116.5566635131836 131.2899932861328 116.12999725341797 131.3699951171875 C 115.70333099365234 131.4566650390625 115.30332946777344 131.5 114.93000030517578 131.5 L 121.29000091552734 137 L 116.58000183105469 137 L 110.22999572753906 131.5 L 108.04000091552734 131.5 L 108.04000091552734 128.4600067138672 L 114.93000030517578 128.4600067138672 C 115.30999755859375 128.42666625976562 115.65666961669922 128.34666442871094 115.97000122070312 128.22000122070312 C 116.29000091552734 128.086669921875 116.5633316040039 127.913330078125 116.79000091552734 127.69999694824219 C 117.02333068847656 127.47999572753906 117.20333099365234 127.21333312988281 117.33000183105469 126.9000015258789 C 117.4566650390625 126.59333038330078 117.52000427246094 126.23999786376953 117.52000427246094 125.83999633789062 L 117.52000427246094 123.91999816894531 C 117.52000427246094 123.74666595458984 117.49666595458984 123.61666870117188 117.44999694824219 123.52999877929688 C 117.41000366210938 123.4366683959961 117.3566665649414 123.37000274658203 117.29000091552734 123.33000183105469 C 117.22333526611328 123.29000091552734 117.15333557128906 123.26333618164062 117.08000183105469 123.25 C 117 123.24333190917969 116.93000030517578 123.23999786376953 116.87000274658203 123.23999786376953 L 106.81999969482422 123.23999786376953 L 106.81999969482422 137 L 103.7699966430664 137 L 103.7699966430664 121.72999572753906 C 103.7699966430664 121.51666259765625 103.80999755859375 121.31666564941406 103.88999938964844 121.12999725341797 C 103.96333312988281 120.94332885742188 104.06999969482422 120.77999877929688 104.20999908447266 120.63999938964844 C 104.34333038330078 120.5 104.50666809082031 120.38999938964844 104.69999694824219 120.30999755859375 C 104.88666534423828 120.23666381835938 105.086669921875 120.19999694824219 105.30000305175781 120.19999694824219 L 116.87000274658203 120.19999694824219 C 117.55000305175781 120.19999694824219 118.12333679199219 120.31999969482422 118.58999633789062 120.55999755859375 C 119.0633316040039 120.80667114257812 119.44667053222656 121.11666870117188 119.73999786376953 121.48999786376953 C 120.03333282470703 121.86333465576172 120.24333190917969 122.26333618164062 120.37000274658203 122.69000244140625 C 120.49666595458984 123.12333679199219 120.55999755859375 123.52666473388672 120.55999755859375 123.9000015258789 L 120.55999755859375 125.83999633789062 ZM 136.78199768066406 128.52999877929688 C 136.78199768066406 128.9499969482422 136.7086639404297 129.40333557128906 136.56199645996094 129.88999938964844 C 136.40866088867188 130.3766632080078 136.16867065429688 130.8300018310547 135.8419952392578 131.25 C 135.5086669921875 131.6699981689453 135.07200622558594 132.02000427246094 134.53199768066406 132.3000030517578 C 133.99867248535156 132.5800018310547 133.34866333007812 132.72000122070312 132.58200073242188 132.72000122070312 L 127.09200286865234 132.72000122070312 L 127.09200286865234 129.8300018310547 L 132.58200073242188 129.8300018310547 C 132.99533081054688 129.8300018310547 133.31533813476562 129.70333862304688 133.5419921875 129.4499969482422 C 133.76866149902344 129.19667053222656 133.8820037841797 128.8800048828125 133.8820037841797 128.5 C 133.8820037841797 128.10665893554688 133.75534057617188 127.79666900634766 133.5019989013672 127.56999969482422 C 133.24867248535156 127.34333038330078 132.94200134277344 127.22999572753906 132.58200073242188 127.22999572753906 L 127.09200286865234 127.22999572753906 C 126.67866516113281 127.22999572753906 126.3586654663086 127.3566665649414 126.13200378417969 127.61000061035156 C 125.90533447265625 127.86333465576172 125.79199981689453 128.17666625976562 125.79199981689453 128.5500030517578 L 125.79199981689453 132.8000030517578 C 125.79199981689453 133.2066650390625 125.91867065429688 133.52333068847656 126.1719970703125 133.75 C 126.42533111572266 133.97666931152344 126.7386703491211 134.08999633789062 127.11199951171875 134.08999633789062 L 132.58200073242188 134.08999633789062 L 132.58200073242188 137 L 127.09200286865234 137 C 126.66533660888672 137 126.20866394042969 136.92666625976562 125.72200012207031 136.77999877929688 C 125.23533630371094 136.6266632080078 124.78199768066406 136.3866729736328 124.36199951171875 136.05999755859375 C 123.94866943359375 135.72666931152344 123.59866333007812 135.2933349609375 123.31199645996094 134.75999450683594 C 123.03199768066406 134.22000122070312 122.89199829101562 133.56666564941406 122.89199829101562 132.8000030517578 L 122.89199829101562 128.52999877929688 C 122.89199829101562 128.10333251953125 122.96533203125 127.64666748046875 123.11199951171875 127.16000366210938 C 123.26533508300781 126.67333221435547 123.5086669921875 126.22000122070312 123.84200286865234 125.80000305175781 C 124.16867065429688 125.38666534423828 124.60199737548828 125.03666687011719 125.14199829101562 124.75 C 125.67533111572266 124.47000122070312 126.32533264160156 124.33000183105469 127.09200286865234 124.33000183105469 L 132.58200073242188 124.33000183105469 C 133.0086669921875 124.33000183105469 133.46533203125 124.40333557128906 133.95199584960938 124.55000305175781 C 134.43865966796875 124.70333099365234 134.89199829101562 124.94667053222656 135.31199645996094 125.27999877929688 C 135.72532653808594 125.6066665649414 136.07533264160156 126.04000091552734 136.36199951171875 126.58000183105469 C 136.64199829101562 127.11333465576172 136.78199768066406 127.76333618164062 136.78199768066406 128.52999877929688 ZM 151.81741333007812 132.8000030517578 C 151.81741333007812 133.22666931152344 151.74407958984375 133.68333435058594 151.597412109375 134.1699981689453 C 151.444091796875 134.6566619873047 151.20074462890625 135.11000061035156 150.86741638183594 135.52999877929688 C 150.54075622558594 135.9499969482422 150.107421875 136.3000030517578 149.56741333007812 136.5800018310547 C 149.03408813476562 136.86000061035156 148.3840789794922 137 147.61741638183594 137 L 142.12742614746094 137 C 141.70074462890625 137 141.24407958984375 136.92666625976562 140.75741577148438 136.77999877929688 C 140.270751953125 136.6266632080078 139.81741333007812 136.3866729736328 139.3974151611328 136.05999755859375 C 138.9774169921875 135.72666931152344 138.62742614746094 135.2933349609375 138.347412109375 134.75999450683594 C 138.06741333007812 134.22000122070312 137.9274139404297 133.56666564941406 137.9274139404297 132.8000030517578 C 137.9274139404297 132.3800048828125 138.00074768066406 131.92333984375 138.1474151611328 131.42999267578125 C 138.30075073242188 130.94332885742188 138.54075622558594 130.49000549316406 138.86741638183594 130.07000732421875 C 139.20074462890625 129.64999389648438 139.63742065429688 129.3000030517578 140.1774139404297 129.02000427246094 C 140.71075439453125 128.74000549316406 141.36074829101562 128.60000610351562 142.12742614746094 128.60000610351562 L 147.61741638183594 128.60000610351562 L 147.61741638183594 131.5 L 142.12742614746094 131.5 C 141.71408081054688 131.5 141.3940887451172 131.6266632080078 141.16741943359375 131.8800048828125 C 140.9407501220703 132.13999938964844 140.82742309570312 132.4566650390625 140.82742309570312 132.8300018310547 C 140.82742309570312 133.22999572753906 140.95741271972656 133.5399932861328 141.21742248535156 133.75999450683594 C 141.4774169921875 133.97999572753906 141.78741455078125 134.08999633789062 142.1474151611328 134.08999633789062 L 147.61741638183594 134.08999633789062 C 148.03074645996094 134.08999633789062 148.3507537841797 133.96665954589844 148.57742309570312 133.72000122070312 C 148.80409240722656 133.46665954589844 148.91741943359375 133.15333557128906 148.91741943359375 132.77999877929688 L 148.91741943359375 128.52999877929688 C 148.91741943359375 128.1300048828125 148.79408264160156 127.8133316040039 148.54742431640625 127.58000183105469 C 148.3074188232422 127.34666442871094 147.99742126464844 127.22999572753906 147.61741638183594 127.22999572753906 L 140.9274139404297 127.22999572753906 L 140.9274139404297 124.33000183105469 L 147.61741638183594 124.33000183105469 C 148.04408264160156 124.33000183105469 148.50074768066406 124.40333557128906 148.9874267578125 124.55000305175781 C 149.47409057617188 124.70333099365234 149.9274139404297 124.94667053222656 150.347412109375 125.27999877929688 C 150.76075744628906 125.6066665649414 151.11074829101562 126.04000091552734 151.3974151611328 126.58000183105469 C 151.6774139404297 127.11333465576172 151.81741333007812 127.76333618164062 151.81741333007812 128.52999877929688 L 151.81741333007812 132.8000030517578 ZM 168.31658935546875 132.72000122070312 C 168.31658935546875 133.24667358398438 168.2499237060547 133.71665954589844 168.11659240722656 134.1300048828125 C 167.98326110839844 134.5500030517578 167.80657958984375 134.9199981689453 167.5865936279297 135.24000549316406 C 167.36659240722656 135.55332946777344 167.11325073242188 135.82000732421875 166.8265838623047 136.0399932861328 C 166.5399169921875 136.26666259765625 166.23658752441406 136.4499969482422 165.91659545898438 136.58999633789062 C 165.60325622558594 136.72999572753906 165.2832489013672 136.8333282470703 164.9565887451172 136.89999389648438 C 164.62991333007812 136.96665954589844 164.32325744628906 137 164.03659057617188 137 L 158.53659057617188 137 C 158.01658630371094 137 157.5499267578125 136.93333435058594 157.13658142089844 136.8000030517578 C 156.72325134277344 136.6666717529297 156.35658264160156 136.49000549316406 156.03659057617188 136.27000427246094 C 155.72325134277344 136.0433349609375 155.4532470703125 135.7866668701172 155.22659301757812 135.5 C 155.006591796875 135.2133331298828 154.8265838623047 134.91000366210938 154.68658447265625 134.58999633789062 C 154.5465850830078 134.27667236328125 154.44325256347656 133.9566650390625 154.3765869140625 133.6300048828125 C 154.30992126464844 133.30332946777344 154.27658081054688 133 154.27658081054688 132.72000122070312 L 154.27658081054688 128.60000610351562 C 154.27658081054688 127.81999969482422 154.419921875 127.15666961669922 154.7065887451172 126.61000061035156 C 154.98658752441406 126.06999969482422 155.3399200439453 125.62999725341797 155.76658630371094 125.29000091552734 C 156.19325256347656 124.94999694824219 156.65658569335938 124.70333099365234 157.15658569335938 124.55000305175781 C 157.65658569335938 124.40333557128906 158.11659240722656 124.33000183105469 158.53659057617188 124.33000183105469 L 164.03659057617188 124.33000183105469 L 164.03659057617188 127.37999725341797 L 158.56658935546875 127.37999725341797 C 158.15992736816406 127.37999725341797 157.84991455078125 127.48333740234375 157.63658142089844 127.69000244140625 C 157.42991638183594 127.89666748046875 157.3265838623047 128.1999969482422 157.3265838623047 128.60000610351562 L 157.3265838623047 132.6999969482422 C 157.3265838623047 133.1133270263672 157.42991638183594 133.42666625976562 157.63658142089844 133.63999938964844 C 157.84326171875 133.84666442871094 158.14324951171875 133.9499969482422 158.53659057617188 133.9499969482422 L 164.03659057617188 133.9499969482422 C 164.44992065429688 133.9499969482422 164.75991821289062 133.84666442871094 164.96658325195312 133.63999938964844 C 165.16659545898438 133.42666625976562 165.26658630371094 133.1199951171875 165.26658630371094 132.72000122070312 L 165.26658630371094 118.97999572753906 L 168.31658935546875 118.97999572753906 L 168.31658935546875 132.72000122070312 ZM 185.19070434570312 138.22000122070312 C 185.19070434570312 138.74000549316406 185.12403869628906 139.2100067138672 184.99070739746094 139.6300048828125 C 184.8573760986328 140.0500030517578 184.6807098388672 140.4166717529297 184.46070861816406 140.72999572753906 C 184.24070739746094 141.0500030517578 183.9873809814453 141.32000732421875 183.70071411132812 141.5399932861328 C 183.41404724121094 141.76666259765625 183.1107177734375 141.9499969482422 182.79071044921875 142.08999633789062 C 182.4773712158203 142.22999572753906 182.16070556640625 142.3333282470703 181.84071350097656 142.39999389648438 C 181.5207061767578 142.46665954589844 181.21405029296875 142.5 180.92071533203125 142.5 L 175.4307098388672 142.5 L 175.4307098388672 139.4499969482422 L 180.92071533203125 139.4499969482422 C 181.32737731933594 139.4499969482422 181.63404846191406 139.3433380126953 181.84071350097656 139.1300048828125 C 182.04071044921875 138.92333984375 182.14071655273438 138.6199951171875 182.14071655273438 138.22000122070312 L 182.14071655273438 124.33000183105469 L 185.19070434570312 124.33000183105469 L 185.19070434570312 138.22000122070312 M 180.92071533203125 137 L 175.4307098388672 137 C 174.99070739746094 137 174.5240478515625 136.92666625976562 174.0307159423828 136.77999877929688 C 173.5307159423828 136.6266632080078 173.0673828125 136.3800048828125 172.64071655273438 136.0399932861328 C 172.20738220214844 135.7066650390625 171.8507080078125 135.26666259765625 171.57070922851562 134.72000122070312 C 171.29071044921875 134.17999267578125 171.1507110595703 133.51333618164062 171.1507110595703 132.72000122070312 L 171.1507110595703 124.33000183105469 L 174.20071411132812 124.33000183105469 L 174.20071411132812 132.72000122070312 C 174.20071411132812 133.1199951171875 174.30404663085938 133.42666625976562 174.51071166992188 133.63999938964844 C 174.7240447998047 133.84666442871094 175.03738403320312 133.9499969482422 175.45071411132812 133.9499969482422 L 180.92071533203125 133.9499969482422 L 180.92071533203125 137 ZM 207.41957092285156 127.37999725341797 L 202.09957885742188 127.37999725341797 L 202.09957885742188 137 L 199.0195770263672 137 L 199.0195770263672 127.37999725341797 L 195.0595703125 127.37999725341797 L 195.0595703125 124.33000183105469 L 199.0195770263672 124.33000183105469 L 199.0195770263672 120.19999694824219 L 202.09957885742188 120.19999694824219 L 202.09957885742188 124.33000183105469 L 207.41957092285156 124.33000183105469 L 207.41957092285156 127.37999725341797 ZM 223.15570068359375 132.72000122070312 C 223.15570068359375 133.24667358398438 223.08901977539062 133.71665954589844 222.9556884765625 134.1300048828125 C 222.82235717773438 134.5500030517578 222.64569091796875 134.9199981689453 222.42568969726562 135.24000549316406 C 222.2123565673828 135.55332946777344 221.9590301513672 135.82000732421875 221.6656951904297 136.0399932861328 C 221.3790283203125 136.26666259765625 221.07569885253906 136.4499969482422 220.7556915283203 136.58999633789062 C 220.44236755371094 136.72999572753906 220.1223602294922 136.8333282470703 219.7957000732422 136.89999389648438 C 219.47569274902344 136.96665954589844 219.1690216064453 137 218.87570190429688 137 L 213.3856964111328 137 C 212.9590301513672 137 212.49569702148438 136.92666625976562 211.99569702148438 136.77999877929688 C 211.49569702148438 136.6266632080078 211.0356903076172 136.3800048828125 210.61569213867188 136.0399932861328 C 210.18902587890625 135.7066650390625 209.83236694335938 135.26666259765625 209.5457000732422 134.72000122070312 C 209.259033203125 134.17999267578125 209.11569213867188 133.51333618164062 209.11569213867188 132.72000122070312 L 209.11569213867188 128.60000610351562 C 209.11569213867188 127.81999969482422 209.259033203125 127.15666961669922 209.5457000732422 126.61000061035156 C 209.83236694335938 126.06999969482422 210.18902587890625 125.62999725341797 210.61569213867188 125.29000091552734 C 211.0356903076172 124.94999694824219 211.49569702148438 124.70333099365234 211.99569702148438 124.55000305175781 C 212.49569702148438 124.40333557128906 212.9590301513672 124.33000183105469 213.3856964111328 124.33000183105469 L 218.87570190429688 124.33000183105469 C 219.662353515625 124.33000183105469 220.3290252685547 124.47000122070312 220.87570190429688 124.75 C 221.42236328125 125.03666687011719 221.86236572265625 125.38999938964844 222.19569396972656 125.80999755859375 C 222.52902221679688 126.23666381835938 222.77235412597656 126.69999694824219 222.92568969726562 127.19999694824219 C 223.0790252685547 127.69999694824219 223.15570068359375 128.1666717529297 223.15570068359375 128.60000610351562 L 223.15570068359375 132.72000122070312 M 220.10569763183594 128.6199951171875 C 220.10569763183594 128.1999969482422 220.0023651123047 127.88666534423828 219.7957000732422 127.68000030517578 C 219.58236694335938 127.47999572753906 219.27569580078125 127.37999725341797 218.87570190429688 127.37999725341797 L 213.40570068359375 127.37999725341797 C 212.9990234375 127.37999725341797 212.69236755371094 127.48333740234375 212.48568725585938 127.69000244140625 C 212.27235412597656 127.89666748046875 212.1656951904297 128.1999969482422 212.1656951904297 128.60000610351562 L 212.1656951904297 132.72000122070312 C 212.1656951904297 133.1199951171875 212.27235412597656 133.42666625976562 212.48568725585938 133.63999938964844 C 212.69236755371094 133.84666442871094 212.9990234375 133.9499969482422 213.40570068359375 133.9499969482422 L 218.87570190429688 133.9499969482422 C 219.28903198242188 133.9499969482422 219.59902954101562 133.84666442871094 219.80569458007812 133.63999938964844 C 220.0056915283203 133.42666625976562 220.10569763183594 133.1199951171875 220.10569763183594 132.72000122070312 L 220.10569763183594 128.6199951171875 ZM 249.32066345214844 137 L 235.42066955566406 137 C 235.20733642578125 137 235.00733947753906 136.9600067138672 234.82066345214844 136.8800048828125 C 234.62733459472656 136.80667114257812 234.46400451660156 136.6999969482422 234.33067321777344 136.55999755859375 C 234.190673828125 136.42666625976562 234.08399963378906 136.26333618164062 234.0106658935547 136.07000732421875 C 233.9306640625 135.88333129882812 233.8906707763672 135.67999267578125 233.8906707763672 135.4600067138672 L 233.8906707763672 120.19999694824219 L 236.940673828125 120.19999694824219 L 236.940673828125 133.9499969482422 L 249.32066345214844 133.9499969482422 L 249.32066345214844 137 ZM 264.3019714355469 132.8000030517578 C 264.3019714355469 133.22666931152344 264.2286376953125 133.68333435058594 264.08197021484375 134.1699981689453 C 263.9286193847656 134.6566619873047 263.685302734375 135.11000061035156 263.3519592285156 135.52999877929688 C 263.0252990722656 135.9499969482422 262.5919494628906 136.3000030517578 262.0519714355469 136.5800018310547 C 261.51861572265625 136.86000061035156 260.8686218261719 137 260.1019592285156 137 L 254.61196899414062 137 C 254.185302734375 137 253.72862243652344 136.92666625976562 253.24195861816406 136.77999877929688 C 252.7552947998047 136.6266632080078 252.3019561767578 136.3866729736328 251.8819580078125 136.05999755859375 C 251.4619598388672 135.72666931152344 251.11196899414062 135.2933349609375 250.8319549560547 134.75999450683594 C 250.5519561767578 134.22000122070312 250.41195678710938 133.56666564941406 250.41195678710938 132.8000030517578 C 250.41195678710938 132.3800048828125 250.48529052734375 131.92333984375 250.6319580078125 131.42999267578125 C 250.78529357910156 130.94332885742188 251.02529907226562 130.49000549316406 251.35195922851562 130.07000732421875 C 251.68528747558594 129.64999389648438 252.12196350097656 129.3000030517578 252.66195678710938 129.02000427246094 C 253.19529724121094 128.74000549316406 253.8452911376953 128.60000610351562 254.61196899414062 128.60000610351562 L 260.1019592285156 128.60000610351562 L 260.1019592285156 131.5 L 254.61196899414062 131.5 C 254.19862365722656 131.5 253.87863159179688 131.6266632080078 253.65196228027344 131.8800048828125 C 253.42529296875 132.13999938964844 253.3119659423828 132.4566650390625 253.3119659423828 132.8300018310547 C 253.3119659423828 133.22999572753906 253.44195556640625 133.5399932861328 253.70196533203125 133.75999450683594 C 253.9619598388672 133.97999572753906 254.27195739746094 134.08999633789062 254.6319580078125 134.08999633789062 L 260.1019592285156 134.08999633789062 C 260.5152893066406 134.08999633789062 260.8352966308594 133.96665954589844 261.06195068359375 133.72000122070312 C 261.28863525390625 133.46665954589844 261.4019470214844 133.15333557128906 261.4019470214844 132.77999877929688 L 261.4019470214844 128.52999877929688 C 261.4019470214844 128.1300048828125 261.27862548828125 127.8133316040039 261.0319519042969 127.58000183105469 C 260.7919616699219 127.34666442871094 260.4819641113281 127.22999572753906 260.1019592285156 127.22999572753906 L 253.41195678710938 127.22999572753906 L 253.41195678710938 124.33000183105469 L 260.1019592285156 124.33000183105469 C 260.52862548828125 124.33000183105469 260.98529052734375 124.40333557128906 261.4719543457031 124.55000305175781 C 261.9586181640625 124.70333099365234 262.4119567871094 124.94667053222656 262.83197021484375 125.27999877929688 C 263.24530029296875 125.6066665649414 263.5953063964844 126.04000091552734 263.8819580078125 126.58000183105469 C 264.1619567871094 127.11333465576172 264.3019714355469 127.76333618164062 264.3019714355469 128.52999877929688 L 264.3019714355469 132.8000030517578 ZM 280.7511291503906 135.4600067138672 C 280.7511291503906 135.67999267578125 280.71112060546875 135.88333129882812 280.6311340332031 136.07000732421875 C 280.55780029296875 136.26333618164062 280.4511413574219 136.42666625976562 280.3111267089844 136.55999755859375 C 280.17779541015625 136.6999969482422 280.0177917480469 136.80667114257812 279.83111572265625 136.8800048828125 C 279.651123046875 136.9600067138672 279.4544677734375 137 279.2411193847656 137 L 272.35113525390625 137 C 271.977783203125 137 271.5777893066406 136.9566650390625 271.151123046875 136.8699951171875 C 270.7244567871094 136.78334045410156 270.3044738769531 136.64666748046875 269.8911437988281 136.4600067138672 C 269.477783203125 136.26666259765625 269.0777893066406 136.02333068847656 268.6911315917969 135.72999572753906 C 268.3044738769531 135.43666076660156 267.9644775390625 135.0800018310547 267.671142578125 134.66000366210938 C 267.38446044921875 134.24667358398438 267.1544494628906 133.76333618164062 266.98114013671875 133.2100067138672 C 266.8011169433594 132.663330078125 266.71112060546875 132.04666137695312 266.71112060546875 131.36000061035156 L 266.71112060546875 124.33000183105469 L 269.7611389160156 124.33000183105469 L 269.7611389160156 131.36000061035156 C 269.7611389160156 131.75999450683594 269.8277893066406 132.1199951171875 269.96112060546875 132.44000244140625 C 270.10113525390625 132.75332641601562 270.2878112792969 133.02333068847656 270.5211181640625 133.25 C 270.75445556640625 133.47666931152344 271.0311279296875 133.64999389648438 271.35113525390625 133.77000427246094 C 271.6644592285156 133.88999938964844 272.00445556640625 133.9499969482422 272.3711242675781 133.9499969482422 L 277.7011413574219 133.9499969482422 L 277.7011413574219 124.33000183105469 L 280.7511291503906 124.33000183105469 L 280.7511291503906 135.4600067138672 ZM 297.6515197753906 137 L 294.6015319824219 137 L 294.6015319824219 129.97000122070312 C 294.6015319824219 129.57000732421875 294.53485107421875 129.2133331298828 294.4015197753906 128.89999389648438 C 294.2615051269531 128.5800018310547 294.0748596191406 128.30667114257812 293.8415222167969 128.0800018310547 C 293.6081848144531 127.85333251953125 293.3315124511719 127.68000030517578 293.0115051269531 127.55999755859375 C 292.69818115234375 127.44000244140625 292.3581848144531 127.37999725341797 291.99151611328125 127.37999725341797 L 286.6615295410156 127.37999725341797 L 286.6615295410156 137 L 283.61151123046875 137 L 283.61151123046875 125.83999633789062 C 283.61151123046875 125.63333129882812 283.6515197753906 125.4366683959961 283.73150634765625 125.25 C 283.8048400878906 125.06999969482422 283.91485595703125 124.91000366210938 284.0615234375 124.77000427246094 C 284.2015075683594 124.63666534423828 284.3648376464844 124.52999877929688 284.551513671875 124.44999694824219 C 284.7381896972656 124.37000274658203 284.9348449707031 124.33000183105469 285.1415100097656 124.33000183105469 L 292.0115051269531 124.33000183105469 C 292.398193359375 124.33000183105469 292.801513671875 124.37333679199219 293.2215270996094 124.45999908447266 C 293.648193359375 124.54666900634766 294.071533203125 124.6866683959961 294.49151611328125 124.87999725341797 C 294.9115295410156 125.06666564941406 295.3115234375 125.3066635131836 295.6915283203125 125.5999984741211 C 296.0648498535156 125.8933334350586 296.398193359375 126.25 296.6915283203125 126.66999816894531 C 296.98486328125 127.08999633789062 297.21820068359375 127.57333374023438 297.3915100097656 128.1199951171875 C 297.5648498535156 128.6666717529297 297.6515197753906 129.28334045410156 297.6515197753906 129.97000122070312 L 297.6515197753906 137 ZM 312.5919189453125 137 L 304.3319091796875 137 C 303.9052429199219 137 303.44189453125 136.92666625976562 302.94189453125 136.77999877929688 C 302.44189453125 136.6266632080078 301.9819030761719 136.3800048828125 301.5619201660156 136.0399932861328 C 301.13525390625 135.7066650390625 300.778564453125 135.26666259765625 300.4919128417969 134.72000122070312 C 300.2052307128906 134.17999267578125 300.0619201660156 133.51333618164062 300.0619201660156 132.72000122070312 L 300.0619201660156 128.60000610351562 C 300.0619201660156 128.30667114257812 300.0952453613281 128 300.1618957519531 127.68000030517578 C 300.22857666015625 127.36000061035156 300.3319091796875 127.0433349609375 300.4718933105469 126.72999572753906 C 300.6119079589844 126.41000366210938 300.79522705078125 126.1066665649414 301.02191162109375 125.81999969482422 C 301.2419128417969 125.53333282470703 301.51190185546875 125.27999877929688 301.8319091796875 125.05999755859375 C 302.1452331542969 124.83999633789062 302.5085754394531 124.663330078125 302.9219055175781 124.52999877929688 C 303.3352355957031 124.39666748046875 303.80523681640625 124.33000183105469 304.3319091796875 124.33000183105469 L 312.5919189453125 124.33000183105469 L 312.5919189453125 127.37999725341797 L 304.3319091796875 127.37999725341797 C 303.9319152832031 127.37999725341797 303.6285705566406 127.47999572753906 303.4219055175781 127.68000030517578 C 303.2152404785156 127.88666534423828 303.1119079589844 128.1999969482422 303.1119079589844 128.6199951171875 L 303.1119079589844 132.72000122070312 C 303.1119079589844 133.1199951171875 303.21856689453125 133.42666625976562 303.4319152832031 133.63999938964844 C 303.6385803222656 133.84666442871094 303.94525146484375 133.9499969482422 304.3518981933594 133.9499969482422 L 312.5919189453125 133.9499969482422 L 312.5919189453125 137 ZM 329.2004699707031 137 L 326.1504821777344 137 L 326.1504821777344 128.60000610351562 C 326.1504821777344 128.1999969482422 326.0471496582031 127.89666748046875 325.8404846191406 127.69000244140625 C 325.6404724121094 127.48333740234375 325.337158203125 127.37999725341797 324.93048095703125 127.37999725341797 L 319.43048095703125 127.37999725341797 L 319.43048095703125 124.33000183105469 L 324.93048095703125 124.33000183105469 C 325.2171630859375 124.33000183105469 325.5204772949219 124.36333465576172 325.8404846191406 124.43000030517578 C 326.1604919433594 124.49666595458984 326.48046875 124.5999984741211 326.80047607421875 124.73999786376953 C 327.1138000488281 124.87999725341797 327.4171447753906 125.0633316040039 327.7104797363281 125.29000091552734 C 327.9971618652344 125.51000213623047 328.25048828125 125.77999877929688 328.4704895019531 126.0999984741211 C 328.69049072265625 126.413330078125 328.8671569824219 126.77666473388672 329.00048828125 127.19000244140625 C 329.1338195800781 127.60333251953125 329.2004699707031 128.07333374023438 329.2004699707031 128.60000610351562 L 329.2004699707031 137 M 318.2004699707031 137 L 315.1604919433594 137 L 315.1604919433594 118.97999572753906 L 318.2004699707031 118.97999572753906 L 318.2004699707031 137 Z" transform="matrix(2.7475905418395996, 0, 0, 2.7475905418395996, 106.42286682128906, 207.99635314941406)" style="white-space: pre; fill: rgb(74, 69, 99);"/></svg>